<?xml version="1.0" encoding="utf-8"?>
<!-- Generator: Adobe Illustrator 24.2.1, SVG Export Plug-In . SVG Version: 6.00 Build 0)  -->
<svg version="1.0" xmlns="http://www.w3.org/2000/svg" xmlns:xlink="http://www.w3.org/1999/xlink" x="0px" y="0px"
	 viewBox="0 0 275 221.8" style="enable-background:new 0 0 275 221.8;" xml:space="preserve">
<style type="text/css">
	.st0{fill:#E0E0E0;}
	.st1{fill:#EBEBEB;}
	.st2{fill:#F5F5F5;}
	.st3{opacity:0.3;}
	.st4{fill:#FAFAFA;}
	.st5{display:none;}
	.st6{display:inline;fill:#F5F5F5;}
	.st7{fill:#FFFFFF;}
	.st8{fill:#263238;}
	.st9{fill:#FFBE9D;}
	.st10{fill:#EB996E;}
	.st11{fill:#FF725E;}
	.st12{fill:#455A64;}
	.st13{fill:#A5695F;}
	.st14{fill:#83534B;}
	.st15{fill:none;stroke:#4E585D;stroke-miterlimit:10;}
</style>
<g id="Background_Complete">
</g>
<g id="Background_Simple" class="st5">
</g>
<g id="Character_4">
</g>
<g id="Speech_Bubble2">
</g>
<g id="Character_3">
	<g>
		<g>
			<g>
				<g>
					<g>
						<rect x="39.5" y="33.3" class="st7" width="227.6" height="166.4"/>
					</g>
				</g>
				<g>
					<g>
						<g>
							<path class="st8" d="M267.1,199.7c0-1.8-0.1-65.6-0.2-166.4l0.2,0.2c-63.9,0-142.6,0-227.5,0h0l0.3-0.3
								c0,59.7,0,116.3,0,166.4l-0.2-0.2C174.2,199.6,265,199.7,267.1,199.7c-2.1,0-92.9,0.1-227.6,0.2l-0.2,0l0-0.2
								c0-50.1,0-106.7,0-166.4l0-0.3h0.3h0c85,0,163.7,0,227.5,0l0.2,0l0,0.2C267.2,134.1,267.1,197.9,267.1,199.7z"/>
						</g>
					</g>
				</g>
			</g>
			<g>
				<g>
					<g>
						<path class="st0" d="M267.8,57.5c0,0.1-50.8,0.3-113.5,0.3c-62.7,0-113.5-0.1-113.5-0.3c0-0.1,50.8-0.3,113.5-0.3
							C217,57.3,267.8,57.4,267.8,57.5z"/>
					</g>
				</g>
			</g>
			<g>
				<g>
					<path class="st0" d="M54.1,44.9c0,1.9-1.5,3.4-3.4,3.4c-1.9,0-3.4-1.5-3.4-3.4c0-1.9,1.5-3.4,3.4-3.4
						C52.6,41.5,54.1,43,54.1,44.9z"/>
				</g>
			</g>
			<g>
				<g>
					<path class="st0" d="M64.4,44.9c0,1.9-1.5,3.4-3.4,3.4c-1.9,0-3.4-1.5-3.4-3.4c0-1.9,1.5-3.4,3.4-3.4
						C62.9,41.5,64.4,43,64.4,44.9z"/>
				</g>
			</g>
			<g>
				<g>
					<path class="st0" d="M74.8,44.9c0,1.9-1.5,3.4-3.4,3.4c-1.9,0-3.4-1.5-3.4-3.4c0-1.9,1.5-3.4,3.4-3.4
						C73.2,41.5,74.8,43,74.8,44.9z"/>
				</g>
			</g>
		</g>
		<g>
			<g>
				<g>
					<g>
						<g>
							<path class="st9" d="M54.3,99.2l1.4-0.9c2.6-1.7,6.1-0.8,7.6,2c2.3,4.2,5.2,10.1,5.2,10.1l-6.1,9.6l-2,0.1
								c-2.2,1.4-7.4-1.4-10.8-3.6c-3.5-2.1-1.8-4.2-1.8-4.2c-2.2-3,0.8-4.3,0.8-4.3c-1.9-2.7,0.9-4.6,0.9-4.6"/>
						</g>
					</g>
				</g>
				<g>
					<g>
						<g>
							
								<rect x="12.9" y="72.5" transform="matrix(0.9821 -0.1882 0.1882 0.9821 -18.8922 8.4887)" class="st7" width="44.6" height="62.5"/>
						</g>
					</g>
					<g>
						<g>
							<g>
								<path class="st8" d="M19.2,138.6c0,0,0-0.1-0.1-0.3c0-0.2-0.1-0.5-0.2-0.8c-0.2-0.8-0.4-1.9-0.7-3.3
									c-0.6-2.9-1.4-7.2-2.5-12.6c-2.1-10.8-5.1-26.2-8.6-44.4l0-0.2l0.2,0c13.2-2.5,28.1-5.4,43.8-8.4l0,0l0.3,0l0,0.3
									c4.4,23,8.4,44.2,11.7,61.4l0,0.2l-0.2,0c-13.3,2.5-24.3,4.6-32,6c-3.8,0.7-6.8,1.3-8.8,1.6c-1,0.2-1.8,0.3-2.3,0.4
									C19.5,138.6,19.2,138.6,19.2,138.6s0.3-0.1,0.8-0.2c0.5-0.1,1.3-0.3,2.3-0.5c2.1-0.4,5-1,8.8-1.7c7.6-1.5,18.6-3.6,31.8-6.2
									l-0.2,0.2c-3.3-17.1-7.4-38.4-11.8-61.4l0.3,0.2l0,0c-15.7,3-30.6,5.8-43.8,8.4l0.2-0.3c3.4,18.1,6.3,33.4,8.4,44.2
									c1,5.4,1.8,9.7,2.4,12.6c0.3,1.5,0.5,2.6,0.6,3.4c0.1,0.4,0.1,0.7,0.2,0.9C19.2,138.5,19.2,138.6,19.2,138.6z"/>
							</g>
						</g>
					</g>
				</g>
				<g>
					<g>
						<g>
							<path class="st8" d="M14.8,91.3c0-0.1,7.2-1.6,16.2-3.4c9-1.7,16.2-3,16.3-2.9c0,0.1-7.2,1.6-16.2,3.4
								C22.1,90.2,14.8,91.4,14.8,91.3z"/>
						</g>
					</g>
				</g>
				<g>
					<g>
						<g>
							<path class="st8" d="M15.6,95.6c0-0.1,7.2-1.6,16.2-3.4c9-1.7,16.2-3,16.3-2.9c0,0.1-7.2,1.6-16.2,3.4
								C22.9,94.5,15.6,95.8,15.6,95.6z"/>
						</g>
					</g>
				</g>
				<g>
					<g>
						<g>
							<path class="st8" d="M16.4,100c0-0.1,7.2-1.6,16.2-3.4c9-1.7,16.2-3,16.3-2.9c0,0.1-7.2,1.6-16.2,3.4
								C23.7,98.8,16.5,100.1,16.4,100z"/>
						</g>
					</g>
				</g>
				<g>
					<g>
						<g>
							<path class="st8" d="M17.3,104.3c0-0.1,7.2-1.6,16.2-3.4c9-1.7,16.2-3,16.3-2.9c0,0.1-7.2,1.6-16.2,3.4
								C24.6,103.2,17.3,104.4,17.3,104.3z"/>
						</g>
					</g>
				</g>
				<g>
					<g>
						<g>
							<path class="st8" d="M18.1,108.6c0-0.1,7.2-1.6,16.2-3.4c9-1.7,16.2-3,16.3-2.9c0,0.1-7.2,1.6-16.2,3.4
								C25.4,107.5,18.1,108.8,18.1,108.6z"/>
						</g>
					</g>
				</g>
				<g>
					<g>
						<g>
							<path class="st8" d="M18.9,113c0-0.1,7.2-1.6,16.2-3.4c9-1.7,16.2-3,16.3-2.9c0,0.1-7.2,1.6-16.2,3.4
								C26.2,111.8,18.9,113.1,18.9,113z"/>
						</g>
					</g>
				</g>
				<g>
					<g>
						<g>
							<path class="st8" d="M19.8,117.3c0-0.1,7.2-1.6,16.2-3.4c9-1.7,16.2-3,16.3-2.9c0,0.1-7.2,1.6-16.2,3.4
								C27.1,116.2,19.8,117.4,19.8,117.3z"/>
						</g>
					</g>
				</g>
				<g>
					<g>
						<g>
							<path class="st8" d="M20.6,121.6c0-0.1,7.2-1.6,16.2-3.4c9-1.7,16.2-3,16.3-2.9c0,0.1-7.2,1.6-16.2,3.4
								C27.9,120.5,20.6,121.8,20.6,121.6z"/>
						</g>
					</g>
				</g>
				<g>
					<g>
						<g>
							<path class="st8" d="M21.4,126c0-0.1,7.2-1.6,16.2-3.4c9-1.7,16.2-3,16.3-2.9c0,0.1-7.2,1.6-16.2,3.4
								C28.7,124.8,21.4,126.1,21.4,126z"/>
						</g>
					</g>
				</g>
				<g>
					<g>
						<g>
							<path class="st8" d="M45.3,72.3c0,0,0.1,0.4,0.3,1.1c0.2,0.8,0.4,1.8,0.7,3c0.1,0.3,0.1,0.7,0.2,1c0.1,0.4,0.1,0.8-0.1,1.2
								c-0.2,0.8-1,1.5-1.9,1.7c-0.9,0.2-2-0.3-2.6-1.2c-0.1-0.2-0.2-0.5-0.3-0.7c0-0.2-0.1-0.5-0.1-0.7c-0.1-0.5-0.2-1-0.3-1.4
								c-0.2-1-0.4-1.9-0.5-2.9c-0.1-0.5-0.2-0.9-0.3-1.4c-0.1-0.4-0.2-0.9-0.1-1.4c0.1-0.9,0.5-1.8,1.2-2.3
								c0.6-0.5,1.4-0.7,2.1-0.7c1.4,0,2.3,1,2.7,1.6c0.2,0.3,0.3,0.6,0.3,0.8c0,0.2,0,0.3,0,0.3c-0.1,0-0.1-0.4-0.5-1
								c-0.4-0.6-1.2-1.3-2.5-1.3c-0.6,0-1.3,0.2-1.8,0.7c-0.5,0.5-0.9,1.2-1,2c0,0.4,0.1,0.8,0.1,1.2c0.1,0.4,0.2,0.9,0.3,1.4
								c0.2,0.9,0.4,1.9,0.6,2.8c0.1,0.5,0.2,1,0.3,1.4c0,0.2,0.1,0.5,0.1,0.7c0,0.2,0.1,0.4,0.2,0.6c0.4,0.7,1.3,1.1,2,1
								c0.8-0.1,1.4-0.7,1.6-1.3c0.1-0.3,0.1-0.7,0.1-1c-0.1-0.3-0.1-0.7-0.2-1c-0.2-1.2-0.4-2.2-0.5-3
								C45.3,72.7,45.2,72.3,45.3,72.3z"/>
						</g>
					</g>
				</g>
				<g>
					<g>
						<path class="st9" d="M58.3,97.4c-0.3,0-13.3,2-13.3,2c-0.2,1.2,0.5,2.9,3.5,2.9c2.9,0,5.5-0.2,5.5-0.2s3.2,6.7,6.4,7.4
							c3.2,0.7,1.6-6.4,1.6-6.4l0,0L58.3,97.4z"/>
					</g>
				</g>
			</g>
			<g>
				<g>
					<g>
						<g>
							<path class="st8" d="M207.2,55.1c1.1-2.6,2.3-5.3,2.4-8.2c0.1-2.9-1.1-6-3.5-7.3c-2.3-1.2-5.1-0.6-7.5-1.5
								c-3-1.1-4.9-4.1-6.2-7c-1.3-3,0.5-4-1.7-6.3c-3-3.1-4.9-3.5-8.7-1.6c-2.7-1.9-12.1-5.4-14.9-5.5c-4-0.1-8.6,0.2-11.4,3.1
								c-2.2,2.2-3.6,5.1-6.3,6.7c-3.7,2.2-8.4,0.3-12.7,0.5c-0.9,0-1.9,0.3-2.3,1.1c-0.3,0.7,0,1.5,0.3,2.2
								c1.1,2.3,2.2,4.6,3.3,6.9c-1.8,0.8-4,0.8-5.8-0.1c0.2,4.5,2,9,5.1,12.3c-0.8-0.5-1.9,0-2.3,0.9c-0.4,0.9-0.2,1.8,0,2.8
								c1.5,5.5,5.5,10.4,10.7,12.9c5.2,2.5,11.4,2.7,16.7,0.4l23.7,1.8c0.7,1.8,2.2,3.3,4.1,3.8c2.7-2,3.1-3.1,3.1-3.1
								c1.6,1.2,0.4,0.6,1.6,1.2c2.9,1.4,7.3-0.3,8-3.5c0.3-1.4,0.7-2.7,1.6-3.6c0.9-1,2.3-1.3,3.5-1.9c1.9-0.9,3.4-2.5,4.3-4.4
								C210.4,57.4,208.5,56.6,207.2,55.1z"/>
						</g>
					</g>
				</g>
				<g>
					<g>
						<g>
							<g>
								<g>
									<g>
										<g>
											<g>
												<g>
													<g>
														<g>
															<g>
																<g>
																	<g>
																		<g>
																			<g>
																				<g>
																					<g>
																						<g>
																							<g>
																								<g>
																									<path class="st9" d="M190.4,45l0.6,49c0.1,8.3-1.4,20.6-14.6,20.1l0,0c-11.4-1.2-14.4-12-14.5-19.8
																										c0-3.7-0.1-6.8-0.1-7.1c0,0-12.5-1-13.5-13.3c-0.5-6-0.6-18.3-0.5-29.5c0.1-12,9.4-21.9,21.4-22.8l1.2-0.1
																										C183.2,21.2,190.5,32.1,190.4,45z"/>
																								</g>
																							</g>
																						</g>
																					</g>
																				</g>
																			</g>
																		</g>
																	</g>
																</g>
															</g>
														</g>
													</g>
												</g>
											</g>
										</g>
									</g>
								</g>
							</g>
							<g>
								<g>
									<g>
										<g>
											<g>
												<g>
													<g>
														<g>
															<g>
																<g>
																	<g>
																		<g>
																			<g>
																				<g>
																					<g>
																						<g>
																							<g>
																								<g>
																									<path class="st10" d="M161.7,87.1c0,0,7.8-0.1,15.7-5.9c0,0-3.3,9.3-15.7,9.1L161.7,87.1z"/>
																								</g>
																							</g>
																						</g>
																					</g>
																				</g>
																			</g>
																		</g>
																	</g>
																</g>
															</g>
														</g>
													</g>
												</g>
											</g>
										</g>
									</g>
								</g>
							</g>
						</g>
					</g>
				</g>
				<g>
					<g>
						<g>
							<g>
								<g>
									<g>
										<g>
											<g>
												<g>
													<g>
														<g>
															<g>
																<g>
																	<g>
																		<g>
																			<g>
																				<g>
																					<g>
																						<g>
																							<g>
																								<g>
																									<g>
																										<g>
																											<g>
																												<g>
																													<path class="st8" d="M168.8,49.4c0.2,0.2,1.7-0.9,3.7-1c2.1-0.1,3.6,1,3.8,0.7c0.1-0.1-0.1-0.6-0.8-1
																														c-0.7-0.5-1.8-0.9-3.1-0.9c-1.3,0-2.4,0.6-3,1.1C168.9,48.8,168.7,49.2,168.8,49.4z"/>
																												</g>
																											</g>
																										</g>
																									</g>
																								</g>
																							</g>
																						</g>
																					</g>
																				</g>
																			</g>
																		</g>
																	</g>
																</g>
															</g>
														</g>
													</g>
												</g>
											</g>
										</g>
									</g>
									<g>
										<g>
											<g>
												<g>
													<g>
														<g>
															<g>
																<g>
																	<g>
																		<g>
																			<g>
																				<g>
																					<g>
																						<g>
																							<g>
																								<g>
																									<g>
																										<g>
																											<g>
																												<path class="st8" d="M168.4,53.9c0,0.9,0.8,1.6,1.7,1.6c0.9,0,1.6-0.7,1.6-1.6c0-0.9-0.8-1.6-1.7-1.6
																													C169.1,52.3,168.4,53.1,168.4,53.9z"/>
																											</g>
																										</g>
																									</g>
																								</g>
																							</g>
																						</g>
																					</g>
																				</g>
																			</g>
																		</g>
																	</g>
																</g>
															</g>
														</g>
													</g>
												</g>
											</g>
										</g>
									</g>
									<g>
										<g>
											<g>
												<g>
													<g>
														<g>
															<g>
																<g>
																	<g>
																		<g>
																			<g>
																				<g>
																					<g>
																						<g>
																							<g>
																								<g>
																									<g>
																										<g>
																											<g>
																												<path class="st8" d="M163.6,63.7c0-0.1-1.2-0.2-3.1-0.3c-0.5,0-1-0.1-1.1-0.4c-0.1-0.3,0-0.9,0.2-1.5
																													c0.4-1.2,0.8-2.5,1.2-3.8c1.6-5.4,2.7-9.8,2.5-9.9c-0.2-0.1-1.7,4.3-3.3,9.7c-0.4,1.3-0.8,2.6-1.1,3.8
																													c-0.1,0.6-0.4,1.2-0.1,1.9c0.2,0.4,0.5,0.6,0.8,0.6c0.3,0.1,0.6,0.1,0.8,0.1
																													C162.4,63.9,163.6,63.8,163.6,63.7z"/>
																											</g>
																										</g>
																									</g>
																								</g>
																							</g>
																						</g>
																					</g>
																				</g>
																			</g>
																		</g>
																	</g>
																</g>
															</g>
														</g>
													</g>
												</g>
											</g>
										</g>
									</g>
								</g>
							</g>
						</g>
						<g>
							<g>
								<g>
									<g>
										<g>
											<g>
												<g>
													<g>
														<g>
															<g>
																<g>
																	<g>
																		<g>
																			<g>
																				<g>
																					<g>
																						<g>
																							<g>
																								<path class="st8" d="M169.7,41.6c0.2,0.5,1.9,0.1,3.8,0.2c2,0.1,3.6,0.5,3.8,0.1c0.1-0.2-0.2-0.6-0.9-1
																									c-0.7-0.4-1.7-0.8-2.9-0.8c-1.2,0-2.3,0.2-2.9,0.6C169.9,41,169.6,41.4,169.7,41.6z"/>
																							</g>
																						</g>
																					</g>
																				</g>
																			</g>
																		</g>
																	</g>
																</g>
															</g>
														</g>
													</g>
												</g>
											</g>
										</g>
									</g>
								</g>
							</g>
						</g>
						<g>
							<g>
								<g>
									<g>
										<g>
											<g>
												<g>
													<g>
														<g>
															<g>
																<g>
																	<g>
																		<g>
																			<g>
																				<g>
																					<g>
																						<g>
																							<g>
																								<path class="st8" d="M150.1,45.4c0.2,0.4,1.8,0,3.8-0.1c2-0.1,3.6,0.2,3.8-0.2c0.1-0.2-0.2-0.5-0.9-0.8
																									c-0.7-0.3-1.7-0.5-2.9-0.5c-1.2,0-2.2,0.4-2.9,0.7C150.3,44.9,150,45.2,150.1,45.4z"/>
																							</g>
																						</g>
																					</g>
																				</g>
																			</g>
																		</g>
																	</g>
																</g>
															</g>
														</g>
													</g>
												</g>
											</g>
										</g>
									</g>
								</g>
							</g>
						</g>
					</g>
				</g>
				<g>
					<g>
						<g>
							<g>
								<g>
									<g>
										<g>
											<g>
												<g>
													<g>
														<g>
															<g>
																<g>
																	<g>
																		<g>
																			<g>
																				<path class="st9" d="M190,54.2c0.2-0.1,8.3-3.1,8.6,5.3c0.3,8.5-8.2,7.1-8.2,6.8C190.4,66.1,190,54.2,190,54.2z
																					"/>
																			</g>
																		</g>
																	</g>
																</g>
															</g>
														</g>
													</g>
												</g>
											</g>
										</g>
									</g>
								</g>
							</g>
						</g>
					</g>
				</g>
				<g>
					<g>
						<g>
							<g>
								<g>
									<g>
										<g>
											<g>
												<g>
													<g>
														<g>
															<g>
																<g>
																	<g>
																		<g>
																			<g>
																				<g>
																					<path class="st10" d="M192.9,63c0,0,0.2,0.1,0.4,0.2c0.2,0.1,0.7,0.2,1.1,0c0.9-0.4,1.6-1.8,1.6-3.3
																						c0-0.8-0.2-1.5-0.5-2.1c-0.3-0.6-0.7-1-1.2-1.1c-0.5-0.1-0.8,0.2-0.9,0.4c-0.1,0.2,0,0.4-0.1,0.4
																						c0,0-0.2-0.1-0.1-0.5c0-0.2,0.1-0.4,0.3-0.5c0.2-0.2,0.5-0.3,0.8-0.2c0.7,0,1.3,0.6,1.6,1.2
																						c0.4,0.7,0.6,1.5,0.6,2.3c0,1.7-0.8,3.3-2,3.7c-0.6,0.2-1.1,0-1.4-0.2C192.9,63.2,192.9,63,192.9,63z"/>
																				</g>
																			</g>
																		</g>
																	</g>
																</g>
															</g>
														</g>
													</g>
												</g>
											</g>
										</g>
									</g>
								</g>
							</g>
						</g>
					</g>
				</g>
				<g>
					<g>
						<g>
							<g>
								<path class="st8" d="M165.6,69.6c-0.1-0.2,1.6-0.7,2.7-2.3c0.6-0.8,0.9-1.6,1.2-2.2c0.2-0.6,0.4-1,0.5-1
									c0.1,0,0.1,0.4-0.1,1.1c-0.1,0.7-0.4,1.6-1.1,2.5c-0.6,0.9-1.5,1.4-2.2,1.7C166.1,69.6,165.7,69.6,165.6,69.6z"/>
							</g>
						</g>
					</g>
				</g>
				<g>
					<g>
						<path class="st8" d="M201.3,40.5c-1.8-3-2.2-6.5-3.1-9.9c-1-3.3-2.8-6.8-6.1-7.9l-0.1,0c-2.9-1.2-6.5-1.2-8.9,0.8
							c-0.6-4.4-4.4-7.9-8.7-9c-4.3-1.1-11.2-0.5-15.3,1.2c-3.2,1.3-6.3,3.9-10,7.8c-1.6,1.6-3,3.4-4.3,5.2L141,40.3
							c-0.4,0.3-0.8,0.7-1,1.1c-1.5,2,1.3,4.6,3.2,2.9c0,0,0,0,0,0c0.4,0.7,0.7,1.3,1,2l0,0l0.1,0.1c0.2,0.4,0.4,0.8,0.6,1.2l0,0
							l2.9,12.7c0.2-3.5-0.1-15.5,0.1-19c5.4-0.2,10.2-2.4,13.8-6.4c1.9-2.1,3.4-4.7,5.9-6c3.3-1.6,7.2-0.4,10.6,0.8l-0.1-0.1
							c1.8,0.8,3.4,2,4.8,3.4c-0.8,6.8-0.1,13.8,2.1,20.4c0.3,1,1.2,3,2.2,3.4c1.9,0.7,2.4-1.2,3.6-2.2c0.8-0.8,2.1-0.9,3.5-0.8
							c0.8-2.1,1.6-5.7,2.3-8.8c1.1,0.3,2.4,0.4,3.5,0.2c-0.4-0.9-0.7-1.7-1.1-2.6c0.5,0.3,1,0.6,1.5,0.7c0.6,0.1,1.2-0.1,1.4-0.6
							C202.1,41.9,201.6,41.1,201.3,40.5z"/>
					</g>
				</g>
				<g>
					<g>
						<g>
							<g>
								<path class="st12" d="M179.2,25c0,0,0.5,0.3,1.2,1.1c0.7,0.8,1.5,2.2,1.9,4.1c0.2,0.9,0.3,2,0.3,3.1c0,1.1-0.1,2.4-0.2,3.6
									c-0.1,1.3-0.2,2.6-0.1,4c0,0.7,0.1,1.4,0.3,2.1c0.2,0.7,0.3,1.5,0.9,2.1c0.4,0.5,1.1,0.7,1.7,0.6c0.6-0.1,1.2-0.4,1.6-0.9
									c0.8-0.9,1-2.1,1.2-3.1l-0.3,0c0.4,0.9,0.9,1.8,1.5,2.6c0.6,0.7,1.5,1.2,2.4,1.3c0.4,0,0.9,0,1.3-0.2
									c0.4-0.2,0.7-0.5,0.9-0.9c0.2-0.3,0.3-0.7,0.3-1.1c0-0.4-0.2-0.7-0.4-1l-0.1,0.1c1,1.1,2,1.7,2.6,2c0.4,0.2,0.6,0.3,0.8,0.3
									c0.2,0.1,0.3,0.1,0.3,0.1c0,0-0.1,0-0.3-0.1c-0.2-0.1-0.5-0.2-0.8-0.4c-0.7-0.3-1.6-0.9-2.6-2l-0.1,0.1
									c0.4,0.4,0.4,1.2,0.1,1.8c-0.2,0.3-0.4,0.6-0.8,0.8c-0.3,0.2-0.7,0.2-1.2,0.2c-0.8-0.1-1.6-0.5-2.2-1.2
									c-0.6-0.7-1-1.6-1.4-2.5l-0.2-0.4l-0.1,0.4c-0.2,1-0.4,2.2-1.1,3c-0.4,0.4-0.9,0.7-1.4,0.8c-0.5,0.1-1.1-0.1-1.5-0.5
									c-0.5-0.5-0.7-1.2-0.8-1.9c-0.1-0.7-0.2-1.4-0.3-2.1c-0.1-1.4,0-2.7,0.1-4c0.1-1.3,0.2-2.5,0.1-3.7c0-1.1-0.1-2.2-0.4-3.2
									c-0.4-1.9-1.3-3.3-2-4.1C179.7,25.2,179.2,25,179.2,25z"/>
							</g>
						</g>
					</g>
				</g>
				<g>
					<g>
						<g>
							<g>
								<path class="st12" d="M141,37C141,37,141.1,37,141,37c0.2,0.1,0.3,0.2,0.4,0.3c0.1,0.1,0.3,0.2,0.5,0.3
									c0.2,0.1,0.5,0.3,0.8,0.4c1.1,0.5,3,1.1,5.3,0.9c2.3-0.1,5-0.9,7.4-2.7c2.5-1.8,4.6-4.4,6.4-7.4c0.9-1.5,1.6-3,2.4-4.4
									c0.8-1.4,1.7-2.7,2.8-3.8c1.1-1,2.3-1.8,3.6-2.2c0.6-0.2,1.3-0.2,1.9-0.2c0.6,0,1.2,0.2,1.7,0.3c1.1,0.4,1.9,0.9,2.6,1.5
									c0.7,0.6,1.1,1.3,1.4,1.8c0.6,1.1,0.6,1.9,0.6,1.8c0,0,0,0,0-0.1c0-0.1,0-0.2-0.1-0.4c-0.1-0.3-0.2-0.8-0.5-1.4
									c-0.3-0.6-0.7-1.2-1.4-1.9c-0.7-0.6-1.5-1.2-2.6-1.6c-0.5-0.2-1.1-0.3-1.8-0.4c-0.6,0-1.3,0-1.9,0.2
									c-1.3,0.4-2.6,1.1-3.7,2.2c-1.1,1.1-2,2.4-2.8,3.8c-0.8,1.4-1.5,3-2.4,4.4c-1.8,3-3.9,5.5-6.3,7.3c-2.4,1.8-5.1,2.6-7.3,2.8
									c-2.3,0.2-4.1-0.3-5.2-0.8C141.6,37.4,141,36.9,141,37z"/>
							</g>
						</g>
					</g>
				</g>
				<g>
					<g>
						<g>
							<g>
								<path class="st12" d="M139.9,31.6c0,0,0.1,0.1,0.4,0.3c0.3,0.2,0.7,0.4,1.3,0.7c0.6,0.3,1.3,0.5,2.1,0.7
									c0.8,0.2,1.7,0.3,2.7,0.4c1,0,1.9-0.1,2.7-0.2c0.8-0.1,1.5-0.3,2.1-0.5c0.6-0.2,1-0.4,1.3-0.6c0.3-0.2,0.5-0.3,0.5-0.3
									c0,0-0.7,0.3-1.9,0.7c-0.6,0.2-1.3,0.4-2.1,0.5c-0.8,0.1-1.7,0.2-2.6,0.2c-0.9,0-1.8-0.2-2.6-0.3c-0.8-0.2-1.5-0.4-2.1-0.6
									C140.6,31.9,139.9,31.5,139.9,31.6z"/>
							</g>
						</g>
					</g>
				</g>
				<g>
					<g>
						<g>
							<g>
								<g>
									<g>
										<g>
											<g>
												<g>
													<g>
														<g>
															<g>
																<path class="st8" d="M150,50.1c0.2,0.2,1.7-0.9,3.7-1c2.1-0.1,3.6,1,3.8,0.7c0.1-0.1-0.1-0.6-0.8-1
																	c-0.7-0.5-1.8-0.9-3.1-0.9c-1.3,0-2.4,0.6-3,1.1C150.1,49.5,149.9,50,150,50.1z"/>
															</g>
														</g>
													</g>
												</g>
											</g>
										</g>
									</g>
								</g>
							</g>
						</g>
					</g>
				</g>
				<g>
					<g>
						<g>
							<g>
								<g>
									<g>
										<g>
											<g>
												<g>
													<g>
														<g>
															<path class="st8" d="M151.2,54.2c0,0.9,0.8,1.6,1.7,1.6c0.9,0,1.6-0.7,1.6-1.6c0-0.9-0.8-1.6-1.7-1.6
																C151.8,52.6,151.1,53.3,151.2,54.2z"/>
														</g>
													</g>
												</g>
											</g>
										</g>
									</g>
								</g>
							</g>
						</g>
					</g>
				</g>
			</g>
			<g>
				<g>
					<g>
						<g>
							<g>
								<g>
									<path class="st12" d="M141.8,100l-44.6,29.2L70,108l-8.5,13.4c0,0,15.8,18.3,21.7,24.5c5.9,6.2,9.8,9.5,14.4,8.9
										c4.6-0.6,43.2-15.6,43.2-15.6l5.9-40.9l-2.5,0.6C143.4,99.2,142.5,99.5,141.8,100z"/>
								</g>
							</g>
						</g>
					</g>
				</g>
				<g>
					<g>
						<g>
							<g>
								<path class="st12" d="M191.6,90c-10,6.3-20,8.6-30.2,4.6L146,98.5l-7.4,12.9c-1.2,2-1.7,4.4-1.5,6.7l2.9,49.5l-9,31.5
									l88.3,0.8l-4.4-23.4l-10.9-84L191.6,90z"/>
							</g>
						</g>
					</g>
				</g>
				<g>
					<g>
						<g>
							<g>
								<path class="st12" d="M205.1,130.3l-2.8-37.9c0,0,20.8,1.9,27.7,16.6c5.8,12.4,23.2,48.3,24.9,53.4
									c5,14.9-4.2,36.7-36.6,35.5l-3.7-20.3L205.1,130.3z"/>
							</g>
						</g>
					</g>
					<g>
						<g>
							<g>
								<g>
									<path class="st8" d="M221.7,161.8c0,0,0.2,0.6,0.5,1.5c0.4,0.9,0.9,2.1,1.5,3.5c0.6,1.3,1.1,2.5,1.6,3.5
										c0.4,0.9,0.6,1.4,0.7,1.4c0,0-0.2-0.6-0.5-1.5c-0.4-0.9-0.9-2.1-1.5-3.5c-0.6-1.3-1.1-2.5-1.6-3.5
										C222,162.4,221.7,161.8,221.7,161.8z"/>
								</g>
							</g>
						</g>
					</g>
					<g>
						<g>
							<g>
								<g>
									<path class="st8" d="M210.2,132c0.1,0,0.1-2.4,0.1-5.4c0-3-0.1-5.4-0.1-5.4c-0.1,0-0.1,2.4-0.1,5.4
										C210,129.6,210.1,132,210.2,132z"/>
								</g>
							</g>
						</g>
					</g>
					<g>
						<g>
							<g>
								<g>
									<path class="st8" d="M213.2,115.8c0,0,0.1-0.2,0.2-0.6c0.1-0.4,0.3-0.9,0.5-1.6c0.4-1.4,1.2-3.2,2.3-5.1
										c1.1-1.9,2.4-3.4,3.3-4.5c0.5-0.5,0.9-0.9,1.2-1.2c0.3-0.3,0.4-0.4,0.4-0.5c0,0-0.2,0.1-0.5,0.4c-0.3,0.3-0.7,0.7-1.2,1.2
										c-1,1-2.3,2.6-3.4,4.5c-1.1,1.9-1.9,3.8-2.3,5.2c-0.2,0.7-0.3,1.3-0.4,1.7C213.2,115.6,213.2,115.8,213.2,115.8z"/>
								</g>
							</g>
						</g>
					</g>
				</g>
				<g>
					<g>
						<g>
							<path class="st8" d="M139.9,113.5c0,0,0.1,0.4,0.1,1.2c0,0.8,0.1,2,0,3.4c0,2.9-0.3,6.8-0.7,11.1c-0.3,4.3-0.5,8.3-0.4,11.1
								c0,1.4,0.1,2.6,0.1,3.4c0.1,0.8,0.1,1.2,0,1.2c0,0-0.1-0.4-0.2-1.2c-0.1-0.8-0.2-1.9-0.3-3.4c-0.2-2.9-0.1-6.8,0.3-11.2
								c0.3-4.3,0.7-8.3,0.8-11.1c0.1-1.4,0.1-2.6,0.1-3.4C139.8,113.9,139.8,113.5,139.9,113.5z"/>
						</g>
					</g>
				</g>
				<g>
					<g>
						<g>
							<path class="st8" d="M234.9,168.8c0,0-0.5,0.3-1.4,0.8c-0.9,0.5-2.3,1.2-3.9,2.2c-1.6,1-3.5,2.1-5.7,3.3
								c-1.1,0.6-2.3,1.1-3.5,1.7c-1.3,0.5-2.5,1.1-3.9,1.6c-0.4,0.2-0.8,0.3-1.2,0.5l0.2-0.3c0.8,5.4,1.6,10.2,2.1,13.6
								c0.2,1.7,0.4,3,0.6,4.1c0.1,1,0.2,1.5,0.1,1.5c0,0-0.2-0.5-0.3-1.5c-0.2-1-0.4-2.4-0.7-4.1c-0.6-3.5-1.4-8.3-2.2-13.6l0-0.2
								l0.2-0.1c0.4-0.2,0.8-0.3,1.2-0.5c1.3-0.5,2.6-1.1,3.9-1.6c1.2-0.5,2.4-1.1,3.5-1.6c2.2-1.1,4.1-2.3,5.8-3.2
								c1.6-0.9,3-1.6,4-2.1c0.5-0.2,0.9-0.4,1.1-0.5C234.8,168.8,234.9,168.8,234.9,168.8z"/>
						</g>
					</g>
				</g>
				<g>
					<g>
						<g>
							<path class="st8" d="M239.6,162.3c0,0.1-1,0.3-2.7,0.9c-1.6,0.6-3.8,1.7-5.8,3.4c-2,1.7-3.5,3.6-4.4,5.1
								c-0.9,1.5-1.3,2.5-1.4,2.4c0,0,0-0.3,0.2-0.7c0.2-0.5,0.4-1.1,0.9-1.9c0.8-1.6,2.3-3.6,4.4-5.3c2.1-1.7,4.3-2.8,6-3.3
								c0.8-0.3,1.5-0.4,2-0.5C239.3,162.3,239.6,162.3,239.6,162.3z"/>
						</g>
					</g>
				</g>
			</g>
			<g>
				<g>
					<g>
						<g>
							<g>
								<g>
									<path class="st11" d="M206,199.5l21.7-52.4c1-2.4-0.3-4.3-2.8-4.3h-4.4c-1.8,0-3-1-3.1-2.5l-0.1-1.9
										c-0.1-1.5-1.3-2.5-3.1-2.5h-20.7c-1.6,0-3.4,0.8-4.8,2.1l-1.7,1.6c-1.4,1.3-3.2,2.1-4.8,2.1h-26.4c-2.5,0-5.3,1.9-6.3,4.3
										l-21.5,53.4H206z"/>
								</g>
							</g>
						</g>
					</g>
					<g class="st3">
						<g>
							<g>
								<g>
									<path d="M206,199.5l21.7-52.4c1-2.4-0.3-4.3-2.8-4.3h-4.4c-1.8,0-3-1-3.1-2.5l-0.1-1.9c-0.1-1.5-1.3-2.5-3.1-2.5h-20.7
										c-1.6,0-3.4,0.8-4.8,2.1l-1.7,1.6c-1.4,1.3-3.2,2.1-4.8,2.1h-26.4c-2.5,0-5.3,1.9-6.3,4.3l-21.5,53.4H206z"/>
								</g>
							</g>
						</g>
					</g>
					<g>
						<g>
							<g>
								<path class="st0" d="M209.6,181.7l8.2-31.6c0.5-2.1-0.8-4.2-2.7-4.2h-64.2c-1.3,0-2.4,1-2.7,2.4l-11.9,47.6
									c-0.5,2.1,0.3,3.3,2.2,3.3l64.5,0c1.3,0,2.3-1,2.7-2.3L209.6,181.7z"/>
							</g>
						</g>
					</g>
					<g>
						<g>
							<g>
								<g>
									<path class="st1" d="M205.1,198.1l3.5-49.8c0.1-1.8-1.3-3.3-3-3.3h-66.5v53.1H205.1z"/>
								</g>
							</g>
						</g>
						<g>
							<g>
								<g>
									<g>
										<g>
											<g>
												<path class="st4" d="M205.9,199.2l-7.9-51.4c-0.4-1.7-1.9-2.9-3.6-2.9h-67.2c-2.7,0-4.4,2.7-3.4,5.1l14.5,47
													L205.9,199.2z"/>
											</g>
										</g>
									</g>
								</g>
							</g>
						</g>
					</g>
					<g>
						<g>
							<g>
								<g>
									<g>
										<g>
											<g>
												<path class="st11" d="M206,199.5l-16.3-48.1c-0.7-2-2.5-3.3-4.5-3.3h-69.3c-2.2,0-3.8,2.3-3.1,4.5l15.2,47L206,199.5z"
													/>
											</g>
										</g>
									</g>
								</g>
							</g>
						</g>
					</g>
				</g>
				<g class="st3">
					<g>
						<g>
							<g>
								<path d="M172.5,191.4c0,0,2.6,0.1,3.8,0.2c5.7,0.4,11.6-0.6,16.8-3c1.6-0.7,3.4-1.8,3.8-3.5c0.6-1.9-0.7-3.9-2.2-5.2
									c-1.5-1.3-3.4-2.2-4.7-3.7c-1.3-1.5-1.9-3.9-0.6-5.5l0.4,0.3c0.9,2.4,3.5,3.5,5.7,4.9c4,2.5,7.1,6.5,8.5,11.1
									c0.8,2.5,1,5.4-0.5,7.5c-1.1,1.5-2.8,2.4-4.6,3c-5.2,1.9-10.8,2-16.4,2c-1.8,0-7.2-0.1-7.2-0.1c-1.7-0.5-2.3-1.4-3.3-2.8
									C171,195.3,171.2,192.5,172.5,191.4z"/>
							</g>
						</g>
					</g>
				</g>
				<g>
					<g>
						<g>
							<g>
								<g>
									<path class="st9" d="M172.5,191.4l18.1-2.7l7-4c0.9-0.5,1.6-1.5,1.6-2.6c0,0,0,0,0-0.1c0.1-1.3-0.8-2.5-2-3.1
										c-2.2-0.9-5.8-2.2-7.3-4.8c-2.2-3.8,0-4.6,0-4.6l15.1,6l10.7,7.3l2.2,12.1l-14.9,4.9c0,0-16.6,0.9-21.2,0.4
										c-4.6-0.5-4.6-2.7-4.6-2.7c-0.9-0.3-2.6-1.8-2.6-3.2C172.4,192.4,172.5,191.4,172.5,191.4"/>
								</g>
							</g>
						</g>
					</g>
					<g>
						<g>
							<g>
								<g>
									<g>
										<path class="st10" d="M195.6,196.7c0,0-0.3,0-0.7,0.1c-0.5,0.1-1.2,0.3-2,0.4c-1.7,0.3-4.1,0.7-6.7,0.8
											c-2.6,0.1-5-0.1-6.8-0.3c-0.9-0.1-1.6-0.2-2-0.3c-0.5-0.1-0.7-0.1-0.8-0.1c0,0,0.3,0.1,0.7,0.2c0.5,0.1,1.2,0.2,2,0.4
											c1.7,0.3,4.1,0.5,6.8,0.4c2.7-0.1,5.1-0.5,6.8-0.9c0.9-0.2,1.5-0.4,2-0.5C195.3,196.8,195.6,196.7,195.6,196.7z"/>
									</g>
								</g>
							</g>
						</g>
					</g>
					<g>
						<g>
							<g>
								<g>
									<g>
										<path class="st10" d="M193.9,193.9c0,0-0.3,0-0.8,0.1c-0.5,0.1-1.2,0.3-2,0.4c-1.7,0.3-4.1,0.7-6.8,0.8
											c-2.7,0.1-5.1-0.1-6.9-0.3c-0.9-0.1-1.6-0.2-2.1-0.3c-0.5-0.1-0.8-0.1-0.8-0.1c0,0,0.3,0.1,0.7,0.2
											c0.5,0.1,1.2,0.2,2.1,0.4c1.8,0.3,4.2,0.5,6.9,0.4c2.7-0.1,5.1-0.5,6.9-0.8c0.9-0.2,1.6-0.4,2-0.5
											C193.7,194,193.9,193.9,193.9,193.9z"/>
									</g>
								</g>
							</g>
						</g>
					</g>
				</g>
			</g>
		</g>
	</g>
</g>
<g id="Character_2">
</g>
<g id="Speech_Bubble1">
</g>
<g id="Character_1">
</g>
</svg>
