<?xml version="1.0" encoding="utf-8"?>
<!-- Generator: Adobe Illustrator 24.2.1, SVG Export Plug-In . SVG Version: 6.00 Build 0)  -->
<svg version="1.0" xmlns="http://www.w3.org/2000/svg" xmlns:xlink="http://www.w3.org/1999/xlink" x="0px" y="0px"
	 viewBox="0 0 275 221.8" style="enable-background:new 0 0 275 221.8;" xml:space="preserve">
<style type="text/css">
	.st0{fill:#E0E0E0;}
	.st1{fill:#EBEBEB;}
	.st2{fill:#F5F5F5;}
	.st3{opacity:0.3;}
	.st4{fill:#FAFAFA;}
	.st5{display:none;}
	.st6{display:inline;fill:#F5F5F5;}
	.st7{fill:#FFFFFF;}
	.st8{fill:#263238;}
	.st9{fill:#FFBE9D;}
	.st10{fill:#EB996E;}
	.st11{fill:#FF725E;}
	.st12{fill:#455A64;}
	.st13{fill:#A5695F;}
	.st14{fill:#83534B;}
	.st15{fill:none;stroke:#4E585D;stroke-miterlimit:10;}
</style>
<g id="Background_Complete">
</g>
<g id="Background_Simple" class="st5">
</g>
<g id="Character_4">
</g>
<g id="Speech_Bubble2">
</g>
<g id="Character_3">
</g>
<g id="Character_2">
	<g>
		<g>
			<g>
				<g>
					<g>
						<rect x="4.4" y="29.3" class="st7" width="227.6" height="169"/>
					</g>
				</g>
				<g>
					<g>
						<g>
							<path class="st8" d="M231.9,198.3c0-1.8-0.1-66.7-0.2-169l0.2,0.2c-64.1,0-142.7,0-227.5,0h0l0.3-0.3c0,60.7,0,118.2,0,169
								l-0.2-0.2C139.1,198.2,229.8,198.3,231.9,198.3c-2.1,0-92.8,0.1-227.6,0.2l-0.2,0l0-0.2c0-50.8,0-108.3,0-169l0-0.3h0.3h0
								c84.8,0,163.5,0,227.5,0h0.2l0,0.2C232,131.6,231.9,196.6,231.9,198.3z"/>
						</g>
					</g>
				</g>
			</g>
			<g>
				<g>
					<g>
						<path class="st0" d="M231.9,51.8c0,0.1-51,0.3-113.8,0.3C55.3,52,4.3,51.9,4.3,51.8c0-0.1,50.9-0.3,113.8-0.3
							C181,51.5,231.9,51.6,231.9,51.8z"/>
					</g>
				</g>
			</g>
			<g>
				<g>
					<circle class="st0" cx="14" cy="39.4" r="3.3"/>
				</g>
			</g>
			<g>
				<g>
					<circle class="st0" cx="24.1" cy="39.4" r="3.3"/>
				</g>
			</g>
			<g>
				<g>
					<circle class="st0" cx="34.2" cy="39.4" r="3.3"/>
				</g>
			</g>
		</g>
		<g>
			<g>
				<g>
					<path class="st13" d="M206.9,164.3c0,0,5.6-7.3,8.2-7.6c2.6-0.3,19,0.3,21.3,0c2.3-0.3,15.2-5.7,15.2-5.7s2.3,0.8,2,2.8
						c-0.3,2.1-14.6,9.8-16.4,10.1c-1.7,0.3-15.5,1.3-15.5,1.3l-3.5,6.2L206.9,164.3z"/>
				</g>
			</g>
			<g>
				<g>
					<g>
						<g>
							<path class="st8" d="M159.3,72.8c2.8-1.3,4.8-4.1,5.1-7.1c0.3-3.1-1.2-6.2-3.7-8l-10.1-3.4c-1.5,13-3,26-4.6,39
								c2.7-0.1,5.5-0.6,7.7-2.1c2.2-1.5,3.7-4.5,2.9-7c2.2-0.7,4-2.7,4.5-4.9C161.6,77,160.9,74.4,159.3,72.8z"/>
						</g>
					</g>
				</g>
				<g>
					<g>
						<g>
							<g>
								<g>
									<g>
										<g>
											<g>
												<g>
													<g>
														<g>
															<g>
																<g>
																	<path class="st13" d="M109.9,65.2l0.4-4.6l28.3-2.4c8.7,0,17,9.5,16.7,18.1c-0.4,9.6-1.2,21.3-3.1,28.3
																		c-3.7,14.1-14.9,14.8-14.9,14.8l-1,14.2c-0.8,8.3-7.9,9.4-16.2,8.6l0,0c-8.1-0.7-14.2-7.7-13.7-15.8L109.9,65.2z"
																		/>
																</g>
															</g>
														</g>
													</g>
												</g>
											</g>
										</g>
									</g>
								</g>
								<g>
									<g>
										<g>
											<g>
												<g>
													<g>
														<g>
															<g>
																<g>
																	<g>
																		<g>
																			<g>
																				<g>
																					<g>
																						<g>
																							<g>
																								<g>
																									<path class="st8" d="M150.8,86.4c-0.1,1-0.9,1.7-2,1.7c-1,0-1.8-0.9-1.7-1.8c0.1-1,0.9-1.7,2-1.7
																										C150.1,84.6,150.8,85.4,150.8,86.4z"/>
																								</g>
																							</g>
																						</g>
																					</g>
																				</g>
																			</g>
																		</g>
																	</g>
																</g>
															</g>
														</g>
													</g>
												</g>
											</g>
										</g>
									</g>
									<g>
										<g>
											<g>
												<g>
													<g>
														<g>
															<g>
																<g>
																	<g>
																		<g>
																			<g>
																				<g>
																					<g>
																						<g>
																							<g>
																								<g>
																									<g>
																										<path class="st8" d="M151.6,82c-0.3,0.2-1.5-1-3.5-1.2c-2-0.2-3.5,0.6-3.7,0.4c-0.1-0.1,0.2-0.5,0.9-0.9
																											c0.7-0.4,1.8-0.7,3-0.6c1.2,0.1,2.2,0.7,2.8,1.2C151.6,81.4,151.7,81.9,151.6,82z"/>
																									</g>
																								</g>
																							</g>
																						</g>
																					</g>
																				</g>
																			</g>
																		</g>
																	</g>
																</g>
															</g>
														</g>
													</g>
												</g>
											</g>
										</g>
									</g>
								</g>
								<g>
									<g>
										<g>
											<g>
												<g>
													<g>
														<g>
															<g>
																<g>
																	<g>
																		<g>
																			<g>
																				<g>
																					<g>
																						<g>
																							<g>
																								<g>
																									<path class="st8" d="M132.3,85.2c-0.1,1-0.9,1.7-2,1.7c-1,0-1.8-0.9-1.7-1.8c0.1-1,0.9-1.7,2-1.7
																										C131.6,83.4,132.4,84.3,132.3,85.2z"/>
																								</g>
																							</g>
																						</g>
																					</g>
																				</g>
																			</g>
																		</g>
																	</g>
																</g>
															</g>
														</g>
													</g>
												</g>
											</g>
										</g>
									</g>
									<g>
										<g>
											<g>
												<g>
													<g>
														<g>
															<g>
																<g>
																	<g>
																		<g>
																			<g>
																				<g>
																					<g>
																						<g>
																							<g>
																								<g>
																									<g>
																										<path class="st8" d="M132.1,80.4c-0.3,0.2-1.5-1-3.5-1.2c-2-0.2-3.5,0.6-3.7,0.4
																											c-0.1-0.1,0.2-0.5,0.9-0.9c0.7-0.4,1.8-0.7,3-0.6c1.2,0.1,2.2,0.7,2.8,1.2
																											C132.1,79.8,132.3,80.3,132.1,80.4z"/>
																									</g>
																								</g>
																							</g>
																						</g>
																					</g>
																				</g>
																			</g>
																		</g>
																	</g>
																</g>
															</g>
														</g>
													</g>
												</g>
											</g>
										</g>
									</g>
								</g>
								<g>
									<g>
										<g>
											<g>
												<g>
													<g>
														<g>
															<g>
																<g>
																	<g>
																		<g>
																			<g>
																				<g>
																					<g>
																						<g>
																							<g>
																								<g>
																									<path class="st8" d="M137.8,95.8c0-0.1,1.3-0.2,3.3-0.3c0.5,0,1-0.1,1.1-0.4c0.2-0.4,0-0.9-0.2-1.5
																										c-0.3-1.3-0.7-2.6-1.1-4c-1.5-5.7-2.6-10.3-2.3-10.4c0.2-0.1,1.6,4.5,3.2,10.2c0.4,1.4,0.7,2.7,1,4
																										c0.1,0.6,0.4,1.3,0.1,2c-0.2,0.4-0.6,0.6-0.9,0.7c-0.3,0.1-0.6,0-0.9,0C139.1,96,137.8,95.9,137.8,95.8z"
																										/>
																								</g>
																							</g>
																						</g>
																					</g>
																				</g>
																			</g>
																		</g>
																	</g>
																</g>
															</g>
														</g>
													</g>
												</g>
											</g>
										</g>
									</g>
								</g>
								<g>
									<g>
										<g>
											<g>
												<g>
													<g>
														<g>
															<g>
																<g>
																	<g>
																		<g>
																			<g>
																				<g>
																					<g>
																						<g>
																							<g>
																								<path class="st14" d="M137.3,119.4c0,0-10.2-0.4-19.1-7.2c0,0,3.8,10.5,18.8,10.7L137.3,119.4z"/>
																							</g>
																						</g>
																					</g>
																				</g>
																			</g>
																		</g>
																	</g>
																</g>
															</g>
														</g>
													</g>
												</g>
											</g>
										</g>
									</g>
								</g>
							</g>
						</g>
					</g>
					<g>
						<g>
							<g>
								<g>
									<g>
										<g>
											<g>
												<g>
													<g>
														<g>
															<g>
																<g>
																	<g>
																		<g>
																			<g>
																				<g>
																					<path class="st8" d="M133.1,74.8c-0.3,0.5-2.2,0.1-4.5,0.1c-2.3,0-4.3,0.5-4.5,0c-0.1-0.2,0.3-0.7,1.1-1.2
																						c0.8-0.4,2-0.8,3.5-0.8c1.4,0,2.7,0.3,3.5,0.8C132.9,74.1,133.3,74.6,133.1,74.8z"/>
																				</g>
																			</g>
																		</g>
																	</g>
																</g>
															</g>
														</g>
													</g>
												</g>
											</g>
										</g>
									</g>
								</g>
							</g>
						</g>
					</g>
					<g>
						<g>
							<g>
								<g>
									<g>
										<g>
											<g>
												<g>
													<g>
														<g>
															<g>
																<g>
																	<g>
																		<g>
																			<g>
																				<g>
																					<path class="st8" d="M152.2,75.2c-0.4,0.4-1.7-0.2-3.3-0.4c-1.6-0.2-3.1,0-3.3-0.5c-0.1-0.2,0.1-0.7,0.8-1
																						c0.6-0.4,1.7-0.6,2.8-0.5c1.1,0.2,2.1,0.7,2.6,1.2C152.3,74.5,152.4,75,152.2,75.2z"/>
																				</g>
																			</g>
																		</g>
																	</g>
																</g>
															</g>
														</g>
													</g>
												</g>
											</g>
										</g>
									</g>
								</g>
							</g>
						</g>
					</g>
				</g>
				<g>
					<g>
						<g>
							<path class="st8" d="M161.6,63.9c3.1-1.7,4.8-5.4,4.4-8.8c-0.4-3.5-2.9-6.5-6.2-7.9c-0.7-0.3-1.3-0.5-2-0.6
								c-1.3-0.9-2.8-1.5-4.3-1.7c0-1.9-1.5-3.5-3.3-4.1c-1.7-0.7-3.7-0.6-5.5-0.3c-1.6-2.5-4.4-4.1-7.3-4.3
								c-2.9-0.2-5.9,1.1-7.8,3.4c-1.9-1.4-4.5-1.9-6.8-1.2c-2.3,0.7-4.2,2.5-5,4.7c-2.1-0.2-4.2,0.6-5.7,2
								c-0.6,0.5-1.1,1.2-1.4,1.8c-0.7,0.8-1.3,1.7-1.6,2.7c-3.5,0-6.9,2.4-8.1,5.7c-1.2,3.3-0.1,7.3,2.6,9.6c-1.9,1.5-3,4-3,6.4
								c0.1,2.4,1.4,4.8,3.4,6.2c-1.1,2.5-1.1,5.5,0,8c0.5,1.1,1.2,2.1,2.3,2.6c0,0.2,0.1,0.4,0.2,0.6c0.7,1.4,2.9,1.1,4.2,0.2
								c3.3-2.1,5.3-5.7,6.5-9.4c1.2-3.7,1.9-7.6,3.1-11.2c0-0.1,0.1-0.2,0.1-0.3c0.5-1.5,1.4-2.9,2.5-4.1c1,0.9,2.1,1.8,3.2,2.6
								c4.1,2.6,10,2,13.5-1.3c2.7,2.8,6.4,4.6,10.2,5c3.9,0.4,7.7,0.1,11-2.1c0.6-0.4,1.5-1.2,1.9-2.2
								C162.8,65.1,162.3,64.2,161.6,63.9z"/>
						</g>
					</g>
				</g>
				<g>
					<g>
						<g>
							<g>
								<g>
									<g>
										<g>
											<g>
												<g>
													<g>
														<path class="st13" d="M110.2,84.3c-0.2-0.1-7.4-3.7-8.6,4.1c-1.2,7.8,6.9,7.4,7,7.2C108.7,95.3,110.2,84.3,110.2,84.3
															z"/>
													</g>
												</g>
											</g>
										</g>
									</g>
								</g>
							</g>
						</g>
					</g>
				</g>
				<g>
					<g>
						<g>
							<g>
								<g>
									<g>
										<g>
											<g>
												<g>
													<g>
														<g>
															<path class="st14" d="M106.7,92.2c0,0-0.2,0.1-0.4,0.1c-0.2,0.1-0.6,0.1-1-0.1c-0.8-0.4-1.3-1.8-1.1-3.3
																c0.1-0.7,0.3-1.4,0.7-1.9c0.3-0.5,0.8-0.9,1.2-0.9c0.4,0,0.7,0.3,0.7,0.5c0.1,0.2,0,0.4,0,0.4c0,0,0.2-0.1,0.2-0.4
																c0-0.2-0.1-0.4-0.2-0.5c-0.2-0.2-0.4-0.3-0.7-0.3c-0.6,0-1.2,0.4-1.6,1c-0.4,0.6-0.7,1.3-0.8,2.1
																c-0.2,1.6,0.4,3.2,1.5,3.7c0.5,0.2,1,0.1,1.3,0C106.7,92.4,106.7,92.3,106.7,92.2z"/>
														</g>
													</g>
												</g>
											</g>
										</g>
									</g>
								</g>
							</g>
						</g>
					</g>
				</g>
				<g>
					<g>
						<g>
							<g>
								<path class="st12" d="M165.7,53.7c0,0,0,0.1,0,0.2c0,0.1,0.1,0.3,0.1,0.6c0,0.5,0,1.3-0.3,2.2c-0.3,0.9-0.9,2-2,2.9
									c-1.1,0.8-2.7,1.4-4.4,1.2l0.2-0.1c-0.6,2.2-1.9,4.6-4.1,6.4c-1.1,0.9-2.3,1.7-3.8,2.2c-1.4,0.5-3.1,0.5-4.6,0.1
									c-1.5-0.3-2.9-0.9-4.2-1.6c-1.3-0.7-2.5-1.5-3.4-2.6l0.2,0c-2.2,1.6-4.7,2.7-7,2.9c-2.3,0.2-4.3-0.4-5.8-1.2
									c-1.5-0.8-2.5-1.7-3.2-2.3c-0.3-0.3-0.5-0.6-0.7-0.8c-0.1-0.2-0.2-0.3-0.2-0.3c0,0,0.3,0.4,1,1c0.7,0.6,1.7,1.5,3.2,2.2
									c1.5,0.7,3.5,1.3,5.7,1.1c2.2-0.2,4.6-1.2,6.8-2.9l0.1-0.1l0.1,0.1c0.8,1,2,1.8,3.3,2.5c1.3,0.7,2.7,1.3,4.1,1.6
									c1.5,0.3,3,0.3,4.4-0.1c1.4-0.4,2.6-1.2,3.6-2.1c2.1-1.8,3.4-4.1,4-6.3l0-0.1l0.1,0c1.6,0.2,3.2-0.4,4.2-1.1
									c1.1-0.8,1.7-1.8,2-2.7c0.3-0.9,0.4-1.7,0.4-2.2C165.8,54,165.7,53.7,165.7,53.7z"/>
							</g>
						</g>
					</g>
				</g>
				<g>
					<g>
						<g>
							<g>
								<path class="st12" d="M110.1,49.3c0.1,0-0.5,0.9-1,2.6c-0.5,1.7-0.7,4.3,0.4,7.1l0,0.1l-0.1,0.1c-1,0.7-1.9,1.7-2.5,2.9
									c-0.6,1.2-0.8,2.7-0.6,4.2c0.3,1.9,1.4,3.6,2.8,4.6l0.1,0.1l-0.1,0.1c-1,1.5-1.5,3.2-1.5,4.8c-0.1,1.5,0.2,2.9,0.6,3.9
									c0.8,2.1,1.9,3,1.9,3.1c0,0-0.1,0-0.2-0.2c-0.1-0.1-0.3-0.3-0.5-0.5c-0.4-0.5-0.9-1.2-1.4-2.3c-0.4-1.1-0.8-2.4-0.7-4
									c0-1.6,0.5-3.4,1.5-5l0,0.2c-1.5-1-2.6-2.8-3-4.8c-0.3-1.5,0-3.1,0.6-4.4c0.6-1.3,1.6-2.3,2.6-3l-0.1,0.2
									c-1.1-2.9-0.8-5.6-0.3-7.3c0.3-0.9,0.6-1.5,0.8-1.9c0.1-0.2,0.2-0.4,0.3-0.5C110,49.3,110.1,49.3,110.1,49.3z"/>
							</g>
						</g>
					</g>
				</g>
				<g>
					<g>
						<g>
							<g>
								<path class="st8" d="M104.5,94.7c0.1,0-0.3,0.5-0.3,1.4c0,0.4,0.1,1,0.4,1.4c0.3,0.4,0.9,0.7,1.5,0.7c0.6-0.1,1-0.6,1.1-1.2
									c0.1-0.5,0-1.1-0.1-1.5c-0.3-0.8-0.6-1.3-0.5-1.4c0,0,0.4,0.4,0.7,1.3c0.2,0.4,0.3,1,0.2,1.6c-0.1,0.3-0.2,0.6-0.4,0.9
									c-0.2,0.3-0.6,0.5-1,0.5c-0.8,0.1-1.5-0.3-1.9-0.8c-0.4-0.5-0.4-1.2-0.4-1.6C104.1,95.2,104.5,94.7,104.5,94.7z"/>
							</g>
						</g>
					</g>
				</g>
				<g>
					<g>
						<g>
							<g>
								<g>
									<g>
										<g>
											<path class="st14" d="M132.7,98.1c-0.9,0.8-1.4,2-1.3,3.1c0.1,1.2,0.8,2.2,1.8,2.8c0.4,0.2,0.9,0.4,1.3,0.3
												c0.8-0.1,1.4-0.9,1.8-1.5c0.4-0.6,0.8-1.1,1.1-1.7c0.1-0.2,0.3-0.4,0.2-0.6c-0.1-0.2-0.3-0.4-0.5-0.5
												c-1.5-0.7-2.9-1.4-4.4-2.1"/>
										</g>
									</g>
								</g>
							</g>
						</g>
					</g>
					<g>
						<g>
							<g>
								<g>
									<g>
										<g>
											<g>
												<path class="st8" d="M134.5,104.1c0,0-0.8,0-2-0.7c-0.6-0.3-1.2-1-1.5-1.9c-0.1-0.4-0.1-1,0-1.5c0.1-0.5,0.4-1,0.7-1.4
													c0.3-0.4,0.7-0.8,1.1-1l0.1-0.1l0.1,0.1c2.8,1.7,5.1,2.8,5,2.9c0,0.1-2.4-0.7-5.3-2.4h0.3c-0.4,0.2-0.7,0.5-1,0.9
													c-0.5,0.7-0.9,1.7-0.7,2.4c0.2,0.8,0.7,1.3,1.2,1.7C133.8,103.8,134.6,104,134.5,104.1z"/>
											</g>
										</g>
									</g>
								</g>
							</g>
						</g>
					</g>
				</g>
			</g>
			<g>
				<g>
					<g>
						<path class="st12" d="M30,198.4c0,0,28.4-51,33.2-59.2c5.6-9.7,10.4-13.2,14.8-15.3c4.6-2.2,9.6-3.3,14.7-3.3l14.1-0.1
							c0,0,5.4,8,12.6,9.6c10,2.2,17.5-5.3,17.5-5.3l20.3,8.3l-4.1,37.5c-1,9.4-4.5,18.4-10,26.2l-1.3,1.7l-74.7-0.1l8.7-26.9
							l-16,27H30z"/>
					</g>
				</g>
				<g>
					<g>
						<path class="st12" d="M157.2,133c0,0,5.9,3.5,10.3,17.8c4.4,14.3,14,39.9,14,39.9l24-27.2l14.2,9c0,0-23,39.9-26.6,44.6
							c-5.4,7-19.2,11.1-27.3,1.7C160,212,146,179.1,146,179.1L157.2,133z"/>
					</g>
				</g>
				<g>
					<g>
						<g>
							<path class="st8" d="M148.5,153.8c0,0,0.1,0.1,0.2,0.4c0.1,0.3,0.3,0.7,0.5,1.3c0.4,1.1,1,2.8,1.5,4.9
								c1.1,4.2,1.8,10.2,0.8,16.7c-1,6.5-3.4,12.1-5.7,15.7c-1.1,1.8-2.1,3.2-2.9,4.2c-0.4,0.5-0.7,0.8-0.9,1.1
								c-0.2,0.2-0.3,0.4-0.3,0.3c0,0,0.4-0.6,1.1-1.5c0.7-1,1.7-2.4,2.7-4.2c2.1-3.7,4.5-9.2,5.5-15.6c1-6.4,0.3-12.4-0.6-16.5
								c-0.5-2.1-1-3.7-1.4-4.9C148.7,154.4,148.5,153.8,148.5,153.8z"/>
						</g>
					</g>
				</g>
				<g>
					<g>
						<g>
							<path class="st8" d="M80.4,149.2c0,0,0,0.2,0,0.5c-0.1,0.4-0.1,0.9-0.2,1.5c-0.2,1.3-0.5,3.1-0.9,5.4
								c-0.8,4.6-2.2,10.8-4.1,17.7c-1.9,6.8-3.9,12.9-5.5,17.3c-0.8,2.2-1.5,3.9-2,5.1c-0.2,0.6-0.4,1-0.6,1.4
								c-0.1,0.3-0.2,0.5-0.2,0.5c0,0,0-0.2,0.1-0.5c0.1-0.4,0.3-0.8,0.5-1.4c0.5-1.3,1.1-3,1.8-5.2c1.5-4.4,3.5-10.5,5.4-17.3
								c1.9-6.8,3.3-13.1,4.2-17.6c0.4-2.2,0.8-4,1.1-5.4c0.1-0.6,0.2-1.1,0.3-1.5C80.3,149.4,80.3,149.2,80.4,149.2z"/>
						</g>
					</g>
				</g>
			</g>
			<g>
				<g>
					<g>
						<g>
							<g>
								<g>
									<path class="st13" d="M44.6,198.3c0,0,2.7-3.7,4.1-4.4c1.3-0.7,3.2-0.7,4,0s0.8,0.7,0.8,0.7s4.2-1.9,6.2-0.4
										c0,0,4-1.9,5.9,0.3c0,0,3.1-2,4.4-0.3c1.3,1.8,1.2,4.7,0.5,6.2c-0.6,1.5-1.8,6.7-2.7,6.8c0,0-2.5,0.3-2.8-1.1
										c-0.3-1.3-0.5-2-0.5-2s-0.9,4.7-2.1,4.9c-1.1,0.2-3.3,0.1-3.4-2c0,0-1.1,1.6-2.1,1.1c-1-0.5-2.3-1.2-2.2-2.5
										c0.1-1.3,0.1-2.6,0.1-2.6s-0.6,1.9-1.5,1.5c-0.9-0.4-1.9-0.3-2.4-1.9c-0.5-1.6-1.8-4.6-1.8-4.6H44.6z"/>
								</g>
							</g>
						</g>
					</g>
					<g>
						<g>
							<g>
								<g>
									<g>
										<path class="st14" d="M54.9,203.3c-0.1,0,0.2-0.5,0.4-1.3c0.2-0.8,0.4-2,0.1-3.3c-0.2-1.3-0.8-2.3-1.3-3
											c-0.5-0.7-0.9-1.1-0.9-1.1c0,0,0.5,0.2,1.1,0.9c0.6,0.7,1.2,1.8,1.5,3.1c0.2,1.3,0,2.6-0.3,3.4
											C55.3,202.8,55,203.3,54.9,203.3z"/>
									</g>
								</g>
							</g>
						</g>
					</g>
					<g>
						<g>
							<g>
								<g>
									<g>
										<path class="st14" d="M60,194.3c0,0,0.3,0.7,0.5,1.9c0.2,1.2,0.4,2.8,0.3,4.7c-0.1,1.8-0.5,3.5-0.9,4.6
											c-0.4,1.1-0.7,1.8-0.8,1.8c-0.1,0,1.1-2.8,1.3-6.4C60.7,197.2,59.9,194.3,60,194.3z"/>
									</g>
								</g>
							</g>
						</g>
					</g>
					<g>
						<g>
							<g>
								<g>
									<g>
										<path class="st14" d="M65.8,194.6c0.1,0,0.4,2.2,0.1,5c-0.3,2.8-1.1,4.9-1.2,4.8c-0.1,0,0.5-2.2,0.8-4.9
											C65.7,196.8,65.6,194.6,65.8,194.6z"/>
									</g>
								</g>
							</g>
						</g>
					</g>
				</g>
				<g>
					<g>
						<g>
							<g>
								<path class="st13" d="M81.5,195.7c-0.2-0.4-0.6-0.7-1.1-0.9c-1.1-0.3-2.2,0.1-3.1,0.8c-0.8,0.7-1.7,1.8-2.2,2.8l6,0
									C81.1,197.5,81.9,196.5,81.5,195.7z"/>
							</g>
						</g>
					</g>
				</g>
			</g>
			<g>
				<g>
					<g>
						<path class="st11" d="M235.9,112.7H268c0,17.6-14.5,32.1-32.1,32.1c-17.6,0-32.1-14.5-32.1-32.1c0-17.6,14.4-32,32-32.1
							L235.9,112.7z"/>
					</g>
				</g>
				<g>
					<g>
						<g>
							<path class="st11" d="M241.6,107.6l-0.1-32.1c0,0,0.1,0,0.1,0c17.5,0,32,14.4,32.1,31.9L241.6,107.6z"/>
						</g>
					</g>
				</g>
			</g>
		</g>
	</g>
</g>
<g id="Speech_Bubble1">
</g>
<g id="Character_1">
</g>
</svg>
