<?xml version="1.0" encoding="utf-8"?>
<!-- Generator: Adobe Illustrator 24.2.1, SVG Export Plug-In . SVG Version: 6.00 Build 0)  -->
<svg version="1.0" xmlns="http://www.w3.org/2000/svg" xmlns:xlink="http://www.w3.org/1999/xlink" x="0px" y="0px"
	 viewBox="0 0 275 221.8" style="enable-background:new 0 0 275 221.8;" xml:space="preserve">
<style type="text/css">
	.st0{fill:#E0E0E0;}
	.st1{fill:#EBEBEB;}
	.st2{fill:#F5F5F5;}
	.st3{opacity:0.3;}
	.st4{fill:#FAFAFA;}
	.st5{display:none;}
	.st6{display:inline;fill:#F5F5F5;}
	.st7{fill:#FFFFFF;}
	.st8{fill:#263238;}
	.st9{fill:#FFBE9D;}
	.st10{fill:#EB996E;}
	.st11{fill:#FF725E;}
	.st12{fill:#455A64;}
	.st13{fill:#A5695F;}
	.st14{fill:#83534B;}
	.st15{fill:none;stroke:#4E585D;stroke-miterlimit:10;}
</style>
<g id="Background_Complete">
</g>
<g id="Background_Simple" class="st5">
</g>
<g id="Character_4">
	<g>
		<g>
			<g>
				<g>
					<g>
						<rect x="22.7" y="28.2" class="st7" width="227.6" height="169"/>
					</g>
				</g>
				<g>
					<g>
						<g>
							<path class="st8" d="M250.3,197.2c0-1.8-0.1-66.7-0.2-169l0.2,0.2c-64.1,0-142.7,0-227.5,0h0l0.3-0.3c0,60.7,0,118.2,0,169
								l-0.2-0.2C157.5,197.1,248.2,197.2,250.3,197.2c-2.1,0-92.8,0.1-227.6,0.2l-0.2,0v-0.2c0-50.8,0-108.3,0-169v-0.3h0.3h0
								c84.8,0,163.5,0,227.5,0h0.2l0,0.2C250.4,130.5,250.3,195.4,250.3,197.2z"/>
						</g>
					</g>
				</g>
			</g>
			<g>
				<g>
					<g>
						<path class="st0" d="M250.3,53.2c0,0.1-50.8,0.3-113.5,0.3c-62.7,0-113.5-0.1-113.5-0.3c0-0.1,50.8-0.3,113.5-0.3
							C199.4,53,250.3,53.1,250.3,53.2z"/>
					</g>
				</g>
			</g>
			<g>
				<g>
					<path class="st0" d="M36.5,40.6c0,1.9-1.5,3.4-3.4,3.4c-1.9,0-3.4-1.5-3.4-3.4c0-1.9,1.5-3.4,3.4-3.4
						C35,37.2,36.5,38.7,36.5,40.6z"/>
				</g>
			</g>
			<g>
				<g>
					<path class="st0" d="M46.9,40.6c0,1.9-1.5,3.4-3.4,3.4c-1.9,0-3.4-1.5-3.4-3.4c0-1.9,1.5-3.4,3.4-3.4
						C45.3,37.2,46.9,38.7,46.9,40.6z"/>
				</g>
			</g>
			<g>
				<g>
					<path class="st0" d="M57.2,40.6c0,1.9-1.5,3.4-3.4,3.4c-1.9,0-3.4-1.5-3.4-3.4c0-1.9,1.5-3.4,3.4-3.4
						C55.7,37.2,57.2,38.7,57.2,40.6z"/>
				</g>
			</g>
		</g>
		<g>
			<g>
				<g>
					<path class="st0" d="M145.5,15.6c-1-2.2-3.6-3.7-6-3.3c-2.7-2.4-7.2-2.5-10-0.3c-2.1-1.4-4.9-1.6-7.1-0.5
						c-2.2,1.1-3.8,3.4-4.1,5.9c-2.5-0.5-5.2,0.7-6.5,2.9c-1.3,2.2-1,5.2,0.7,7c-2.7,0.7-4.7,3.7-4.2,6.6c0.5,2.8,3.3,5,6.1,4.9
						l29.7-16.3C145.9,20.7,146.5,17.8,145.5,15.6z"/>
				</g>
			</g>
			<g>
				<g>
					<g>
						<g>
							<g>
								<g>
									<path class="st9" d="M113.5,39.4c1.7-12.7,12.8-22.1,25.7-21.4l1.3,0.1c13.7,1.5,20.1,14,18.2,27.6l-4.3,45.7l-0.2,2.2
										l-32,4.8l0.6-11.7c0,0-13.1-2.7-12.6-15.9C110.3,64.4,111.9,51.3,113.5,39.4z"/>
								</g>
							</g>
						</g>
					</g>
					<g>
						<g>
							<g>
								<g>
									<g>
										<g>
											<path class="st10" d="M122.6,86.7c0,0,8.4,0.9,17.6-4.2c0,0-4.5,9.3-17.7,7.5L122.6,86.7z"/>
										</g>
									</g>
								</g>
							</g>
						</g>
					</g>
					<g>
						<g>
							<g>
								<g>
									<g>
										<g>
											<g>
												<g>
													<g>
														<path class="st8" d="M116.3,52.3c-0.1,1,0.7,1.9,1.7,2c1,0.1,1.9-0.6,2-1.6c0.1-1-0.7-1.9-1.7-2
															C117.3,50.6,116.4,51.3,116.3,52.3z"/>
													</g>
												</g>
											</g>
										</g>
									</g>
								</g>
							</g>
						</g>
					</g>
					<g>
						<g>
							<g>
								<g>
									<g>
										<g>
											<g>
												<g>
													<g>
														<g>
															<path class="st8" d="M116,46c0.2,0.3,1.7-0.7,3.7-0.6c2,0.1,3.5,1.2,3.7,1c0.1-0.1-0.1-0.6-0.7-1.1
																c-0.6-0.5-1.7-1-2.9-1.1c-1.3-0.1-2.4,0.4-3,0.8C116.1,45.5,115.9,45.9,116,46z"/>
														</g>
													</g>
												</g>
											</g>
										</g>
									</g>
								</g>
							</g>
						</g>
					</g>
					<g>
						<g>
							<g>
								<g>
									<g>
										<g>
											<g>
												<g>
													<g>
														<path class="st8" d="M134.2,53.5c-0.1,1,0.7,1.9,1.7,2c1,0.1,1.9-0.6,2-1.6c0.1-1-0.7-1.9-1.7-2
															C135.2,51.8,134.3,52.5,134.2,53.5z"/>
													</g>
												</g>
											</g>
										</g>
									</g>
								</g>
							</g>
						</g>
					</g>
					<g>
						<g>
							<g>
								<g>
									<g>
										<g>
											<g>
												<g>
													<g>
														<g>
															<path class="st8" d="M135.9,47.4c0.2,0.3,1.7-0.7,3.7-0.6c2,0.1,3.5,1.2,3.7,1c0.1-0.1-0.1-0.6-0.7-1.1
																c-0.6-0.5-1.7-1-2.9-1.1c-1.3-0.1-2.4,0.4-3,0.8C136,46.8,135.8,47.3,135.9,47.4z"/>
														</g>
													</g>
												</g>
											</g>
										</g>
									</g>
								</g>
							</g>
						</g>
					</g>
					<g>
						<g>
							<g>
								<g>
									<g>
										<g>
											<g>
												<g>
													<g>
														<path class="st8" d="M127.8,62.1c0-0.1-1.2-0.4-3.3-0.8c-0.5-0.1-1-0.2-1.1-0.6c-0.1-0.4,0.1-0.9,0.4-1.5
															c0.5-1.2,1.1-2.5,1.7-3.9c2.4-5.5,4.2-10.1,4-10.2c-0.2-0.1-2.4,4.3-4.8,9.8c-0.6,1.4-1.1,2.7-1.7,3.9
															c-0.2,0.6-0.6,1.2-0.4,2c0.1,0.4,0.5,0.7,0.8,0.8c0.3,0.1,0.6,0.1,0.9,0.2C126.5,62.1,127.8,62.2,127.8,62.1z"/>
													</g>
												</g>
											</g>
										</g>
									</g>
								</g>
							</g>
						</g>
					</g>
					<g>
						<g>
							<g>
								<g>
									<g>
										<g>
											<g>
												<g>
													<g>
														<path class="st8" d="M133.7,63.8c-0.3,0-0.4,2.2-2.4,3.6c-2,1.5-4.3,1.1-4.3,1.4c0,0.1,0.5,0.5,1.5,0.5
															c1,0.1,2.4-0.2,3.6-1.1c1.2-0.9,1.8-2.2,1.9-3.1C134.1,64.3,133.9,63.8,133.7,63.8z"/>
													</g>
												</g>
											</g>
										</g>
									</g>
								</g>
							</g>
						</g>
					</g>
					<g>
						<g>
							<g>
								<g>
									<g>
										<path class="st0" d="M135.8,39.4c0.2,0.6,2.2,0.4,4.6,0.8c2.4,0.4,4.3,1.2,4.6,0.7c0.2-0.2-0.2-0.8-0.9-1.3
											c-0.7-0.6-1.9-1.1-3.4-1.4c-1.4-0.2-2.7-0.1-3.6,0.2C136.2,38.7,135.7,39.1,135.8,39.4z"/>
									</g>
								</g>
							</g>
						</g>
					</g>
					<g>
						<g>
							<g>
								<g>
									<g>
										<path class="st0" d="M117,40.2c0.3,0.5,1.8,0.1,3.4,0.1c1.7,0,3.1,0.5,3.4,0c0.2-0.2,0-0.7-0.6-1.2
											c-0.6-0.5-1.6-0.9-2.8-0.9c-1.2,0-2.2,0.3-2.8,0.8C117.1,39.5,116.9,40,117,40.2z"/>
									</g>
								</g>
							</g>
						</g>
					</g>
					<g>
						<g>
							<g>
								<g>
									<path class="st0" d="M115,33.4c0,0,3.9-8.1,8-9.8c4.9-2.1,6.8,3.3,11.4,2.3c4.7-1.1,9.4-3.1,13.9,0.7
										c5,4.2,2.4,6.8,2.4,12.6c0.1,23.8,4.1,30.8,5.9,19.6c0.2-1.2,3.6-2,4.4-7.2c1-6.7,1.7-14.8,0.4-19.7
										c-1.1-4.1-3.2-7-7.2-10.2c-6.2-5.2-15.2-5.7-21.2-5.4C127,16.6,115,23,115,33.4z"/>
								</g>
							</g>
						</g>
					</g>
					<g>
						<g>
							<g>
								<g>
									<path class="st9" d="M155.9,58.4c0.2-2,2-3.6,4-3.3c2.5,0.4,5.1,1.9,4.7,7c-0.7,9-9.6,6.4-9.6,6.2
										C155,68.1,155.5,62.2,155.9,58.4z"/>
								</g>
							</g>
						</g>
					</g>
					<g>
						<g>
							<g>
								<g>
									<path class="st10" d="M157.2,65.1c0,0,0.1,0.1,0.4,0.3c0.2,0.1,0.7,0.3,1.2,0.1c1-0.3,1.9-1.7,2.1-3.3
										c0.1-0.8,0-1.6-0.3-2.3c-0.2-0.7-0.6-1.2-1.1-1.3c-0.5-0.1-0.8,0.1-1,0.4c-0.1,0.2-0.1,0.4-0.1,0.4c0,0-0.2-0.2-0.1-0.5
										c0.1-0.2,0.2-0.4,0.4-0.5c0.2-0.2,0.6-0.2,0.9-0.2c0.7,0.1,1.3,0.8,1.5,1.5c0.3,0.7,0.4,1.6,0.3,2.6
										c-0.2,1.8-1.3,3.4-2.6,3.7c-0.6,0.1-1.2-0.1-1.4-0.4C157.2,65.3,157.2,65.1,157.2,65.1z"/>
								</g>
							</g>
						</g>
					</g>
				</g>
				<g>
					<g>
						<g>
							<path class="st0" d="M156.6,40.9c-1.2,0.7-2.5,1.5-3.9,1.6c-1.4,0.1-3-0.8-3.2-2.2c-0.1-0.6,0.1-1.4-0.3-1.9
								c-0.5-0.6-1.4-0.5-2.1-0.4c-2.6,0.1-5.2-1.8-5.8-4.4c-0.7,1-2.3,0.8-3.3,0.1c-1-0.7-1.6-1.8-2.3-2.8c-0.7-0.9-1.8-1.8-3-1.7
								c-0.7,0.1-1.3,0.4-2,0.3c-1.2-0.2-1.7-1.6-1.8-2.8c-0.1-1.2-0.2-2.6-1.2-3.3c-0.9-0.6-2.1-0.4-3.2-0.2
								c-1.1,0.1-2.5-0.2-2.7-1.3c-0.1-0.6,0.2-1.1,0.5-1.6c1.5-2.1,4.6-3,7-1.9c1-2.9,3.9-5.1,7.1-5.3c3.1-0.2,6.2,1.7,7.6,4.5
								c2-1.6,4.8-2.2,7.3-1.5c2.5,0.7,4.6,2.7,5.4,5.1c2.2-0.5,4.7,0.5,6,2.4c1.3,1.9,1.4,4.5,0.2,6.4c1.6,1,2.9,2.7,2.8,4.6
								c-0.1,1.9-2,3.6-3.8,3.1c0.7,1.5,0,3.4-1.5,4.2c-1.5,0.7-3.4,0.2-4.3-1.2"/>
						</g>
					</g>
				</g>
			</g>
			<g>
				<g>
					<g>
						<path class="st7" d="M162.5,37.7c0,0,0.1,0.8-0.6,1.7c-0.4,0.4-1,0.9-1.9,1c-0.8,0.1-1.8-0.2-2.5-0.9l0.4,0
							c-0.5,0.8-1.1,1.5-1.9,2.2c-0.5,0.4-1.1,0.8-1.7,0.9c-0.6,0.2-1.3,0.2-1.8,0.1c-1.1-0.2-2.1-0.8-2.5-1.6
							c-0.4-0.8-0.6-1.5-0.6-1.9c-0.1-0.5-0.1-0.7,0-0.7c0,0,0.1,0.2,0.2,0.7c0.1,0.4,0.3,1.1,0.7,1.8c0.8,1.3,3.5,2.1,5.4,0.4
							c0.7-0.6,1.4-1.3,1.8-2l0.2-0.3l0.2,0.2c0.6,0.6,1.4,0.9,2.1,0.8c0.7,0,1.3-0.4,1.7-0.8C162.4,38.4,162.5,37.7,162.5,37.7z"/>
					</g>
				</g>
			</g>
			<g>
				<g>
					<g>
						<path class="st7" d="M146.5,16.2c0,0-0.2,0.1-0.7,0.2c-0.4,0.2-1,0.5-1.5,1.1l-0.1,0.2l-0.1-0.2c-0.8-1.2-2.1-2.7-4.2-3.8
							c-1-0.5-2.2-0.9-3.5-1c-1.3-0.1-2.7,0.2-3.9,0.9c-1,0.5-1.8,1.2-2.4,2c-0.6,0.8-1,1.8-1.1,2.7l0,0.3l-0.3-0.1
							c-1.3-0.4-2.7-0.2-3.8,0.3c-1.1,0.5-1.8,1.3-2.2,2.1c-0.8,1.6-0.6,2.7-0.7,2.6c0,0-0.1-0.3-0.1-0.7c0-0.5,0.1-1.2,0.5-2
							c0.4-0.8,1.1-1.7,2.2-2.3c1.1-0.6,2.6-0.8,4.1-0.4l-0.3,0.2c0.1-1,0.6-2,1.2-2.9c0.7-0.9,1.5-1.6,2.5-2.2
							c1.3-0.7,2.8-1,4.2-0.9c1.4,0.1,2.6,0.5,3.7,1.1c2.1,1.1,3.5,2.8,4.2,4l-0.2,0c0.5-0.7,1.2-1,1.6-1.1
							C146.2,16.2,146.5,16.2,146.5,16.2z"/>
					</g>
				</g>
			</g>
			<g>
				<g>
					<g>
						<path class="st10" d="M136.8,65.3c-0.1,0-0.2-1-0.9-1.8c-0.7-0.9-1.6-1-1.6-1.2c0-0.1,0.3-0.1,0.7,0c0.4,0.1,0.9,0.4,1.4,0.9
							c0.4,0.5,0.6,1.1,0.6,1.5C136.9,65,136.8,65.3,136.8,65.3z"/>
					</g>
				</g>
			</g>
			<g>
				<g>
					<g>
						<path class="st10" d="M137.7,62.8c-0.1,0.1-0.4-0.3-0.9-0.5c-0.5-0.3-0.9-0.3-0.9-0.5c0-0.1,0.6-0.3,1.2,0
							C137.6,62.2,137.8,62.8,137.7,62.8z"/>
					</g>
				</g>
			</g>
			<g>
				<g>
					<g>
						<path class="st10" d="M147.4,84.5c0,0,0.1-0.1,0.3-0.2c0.1-0.2,0.2-0.5,0.1-0.8c-0.1-0.3-0.5-0.7-0.8-1.3
							c-0.1-0.3-0.1-0.7,0.1-1.1c0.2-0.3,0.5-0.5,0.6-0.7c0.7-0.9-1.3-1.6-1-2.7c0.1-0.5,0.3-0.8,0.5-0.9c0.2-0.1,0.4-0.2,0.4-0.1
							c0.1,0.1-0.5,0.3-0.5,1.1c0,0.4,0.2,0.7,0.6,1.1c0.2,0.2,0.4,0.4,0.6,0.8c0.2,0.3,0.1,0.9-0.2,1.1c-0.2,0.3-0.5,0.5-0.6,0.7
							c-0.1,0.2-0.1,0.4,0,0.6c0.1,0.4,0.5,0.8,0.7,1.3c0.2,0.5,0,0.9-0.3,1.1C147.6,84.6,147.4,84.5,147.4,84.5z"/>
					</g>
				</g>
			</g>
			<g>
				<g>
					<g>
						<path class="st10" d="M150.2,84.2c0,0,0-0.1-0.1-0.3c-0.1-0.2-0.2-0.5-0.5-0.8c-0.1-0.2-0.3-0.4-0.4-0.6
							c-0.1-0.2-0.2-0.6-0.1-0.9c0.2-0.6,0.7-1,1-1.5c0.3-0.4,0.1-0.9-0.3-1.3c-0.2-0.2-0.3-0.4-0.5-0.7c-0.1-0.3-0.1-0.5-0.1-0.7
							c0.1-0.9,0.8-1.2,0.8-1.1c0.1,0.1-0.4,0.4-0.4,1.1c0,0.4,0.2,0.7,0.6,1.1c0.2,0.2,0.4,0.4,0.5,0.8c0.1,0.3,0,0.8-0.1,1.1
							c-0.4,0.6-0.9,0.9-1,1.3c-0.1,0.4,0.1,0.8,0.3,1.2c0.2,0.3,0.3,0.7,0.4,0.9C150.3,84.1,150.3,84.2,150.2,84.2z"/>
					</g>
				</g>
			</g>
		</g>
		<g>
			<g>
				<g>
					<g>
						<path class="st0" d="M172.5,157.2l12,11.6l-3.9-22.1l24.3-7.7c0,0,6.5,30.3,7.6,37.5c2,12.9-0.5,31.2-12.5,32.5
							c-13,1.4-22.8-11.4-29-19.8c-4.8-6.5-12.5-17.8-12.5-17.8L172.5,157.2"/>
					</g>
				</g>
			</g>
			<g>
				<g>
					<g>
						<path class="st0" d="M79.7,137.5c-3.9,12.3-9.4,14.2-11.5,49.4c-0.4,6.9,1.1,16,7.6,18.3c7.2,2.5,18.3-2,21.8-8v-24.3
							L79.7,137.5z"/>
					</g>
				</g>
			</g>
			<g>
				<g>
					<g>
						<g>
							<path class="st8" d="M95.9,189c-0.1,0-0.8-2.5-2.4-5.2c-1.6-2.7-3.4-4.6-3.3-4.6c0,0,0.5,0.4,1.3,1.1
								c0.7,0.8,1.6,1.9,2.4,3.3c0.8,1.4,1.4,2.7,1.7,3.7C95.8,188.3,95.9,189,95.9,189z"/>
						</g>
					</g>
				</g>
			</g>
			<g>
				<g>
					<g>
						<path class="st0" d="M73.8,151.7c0.2-0.7,12.2-33.4,16.1-40.6c4.6-8.6,14.2-12.4,20.2-12.7c6-0.4,70,4.7,70,4.7
							s17.9,4.5,21.6,20.7c4.6,20.4,8.2,40.4,8.2,40.4l-32.1,6.9l-3.8-9.5l-60.3,13.5L99,153.4L73.8,151.7z"/>
					</g>
				</g>
			</g>
			<g>
				<g>
					<g>
						<g>
							<polygon class="st0" points="184.4,105 159.3,93.9 156.5,83.2 127.3,97 121.2,90.2 118.7,97.8 112.3,99.9 99.7,124.7 
								97.4,182.3 97.6,197.2 183.9,197.8 183.2,173.3 							"/>
						</g>
					</g>
				</g>
				<g>
					<g>
						<g>
							<g>
								<path class="st0" d="M156.5,83.2c0,0-3.3,0.9-11.6,5.4c-8.2,4.4-17.6,8.4-17.6,8.4l0.7,13.2l31.1-15.6"/>
							</g>
						</g>
					</g>
				</g>
				<g>
					<g>
						<g>
							<g>
								<polyline class="st0" points="121.2,90.2 127.3,97 124.1,111.1 118.6,98.3 								"/>
							</g>
						</g>
					</g>
				</g>
				<g class="st3">
					<g>
						<g>
							<path d="M127.2,98.4c-0.3,0.2-2,16.3-2,16.3l31.1-18.8L128,110.1L127.2,98.4z"/>
						</g>
					</g>
				</g>
			</g>
			<g>
				<g>
					<g>
						<path class="st11" d="M127.5,197.4c0,0-0.6-23.9-0.1-38.9c0.5-12.3-1.5-43.8-1.5-43.8l-4.1-0.7c0,0-7.6,30.6-10.4,68
							c-1.1,15.2-1.1,15.2-1.1,15.2"/>
					</g>
				</g>
			</g>
			<g>
				<g>
					<g>
						<g>
							<path class="st8" d="M177,134c0,0,0.1,0.4,0.3,1.3c0.2,0.9,0.4,2.1,0.6,3.5c0.5,3,1.2,7.1,2,11.6c0.8,4.5,1.5,8.6,1.9,11.6
								c0.2,1.5,0.4,2.7,0.5,3.5c0.1,0.8,0.2,1.3,0.1,1.3c0,0-0.1-0.4-0.3-1.3c-0.2-0.9-0.4-2.1-0.6-3.5c-0.5-3-1.2-7.1-2-11.5
								c-0.8-4.5-1.4-8.6-1.9-11.6c-0.2-1.4-0.4-2.6-0.5-3.5C177,134.5,176.9,134,177,134z"/>
						</g>
					</g>
				</g>
			</g>
			<g>
				<g>
					<g>
						<g>
							<path class="st8" d="M186.2,106.9c0,0.1-0.8,0.8-2.1,2.1c-1.3,1.3-2.8,3.3-4.2,5.7c-1.3,2.4-2.1,4.8-2.4,6.6
								c-0.4,1.8-0.5,2.9-0.6,2.9c0,0,0-0.3,0-0.8c0-0.5,0.1-1.3,0.3-2.2c0.3-1.8,1-4.3,2.4-6.7c1.3-2.5,3-4.4,4.3-5.7
								c0.7-0.6,1.2-1.1,1.7-1.4C186,107,186.2,106.9,186.2,106.9z"/>
						</g>
					</g>
				</g>
			</g>
			<g>
				<g>
					<g>
						<polygon class="st11" points="127.4,103.3 124.7,102.2 122,106.7 121.5,114.1 125.3,114.7 128,110.1 						"/>
					</g>
				</g>
			</g>
			<g>
				<g>
					<g>
						<g>
							<path class="st8" d="M97.4,125.4c0.1,0,0.2,16.1,0.2,35.9c0,19.8-0.1,35.9-0.2,35.9s-0.2-16.1-0.2-35.9
								C97.1,141.5,97.2,125.4,97.4,125.4z"/>
						</g>
					</g>
				</g>
			</g>
			<g>
				<g>
					<g>
						<g>
							<path class="st8" d="M127.6,96.8c0.1,0-0.6,1-1.6,2.7c-1,1.7-2.3,4-3.5,6.6c-0.1,0.2-0.2,0.4-0.3,0.6l-0.2,0.4l-0.2-0.4
								c-1.2-2.5-2.1-4.9-2.6-6.6c-0.3-0.9-0.5-1.6-0.6-2c-0.1-0.5-0.2-0.8-0.1-0.8c0.1,0,0.4,1,1,2.7c0.6,1.7,1.5,4,2.7,6.5l-0.4,0
								c0.1-0.2,0.2-0.4,0.3-0.6c1.3-2.7,2.6-5,3.7-6.6c0.5-0.8,1-1.4,1.3-1.9C127.4,97.1,127.6,96.8,127.6,96.8z"/>
						</g>
					</g>
				</g>
			</g>
			<g>
				<g>
					<g>
						<g>
							<path class="st8" d="M159.3,93.9c0,0-0.1,0.1-0.4,0.3c-0.3,0.2-0.7,0.4-1.3,0.7c-1.1,0.6-2.7,1.4-4.6,2.4
								c-3.9,2-9.3,4.9-15.2,8.1c-3.6,1.9-7,3.7-10,5.2l-0.3,0.1l0-0.3c0-3.9-0.1-7.1-0.1-9.5c0-1.1,0-2,0-2.7c0-0.6,0-0.9,0-0.9
								c0,0,0,0.3,0.1,0.9c0,0.7,0.1,1.6,0.1,2.7c0.1,2.4,0.1,5.6,0.2,9.5l-0.3-0.2c3-1.5,6.4-3.3,10-5.2c5.9-3.2,11.3-6,15.3-8
								c2-1,3.6-1.8,4.7-2.3c0.5-0.2,1-0.4,1.3-0.6C159.2,94,159.3,93.9,159.3,93.9z"/>
						</g>
					</g>
				</g>
			</g>
			<g>
				<g>
					<g>
						<g>
							<path class="st8" d="M101.1,104.1c0.1,0-0.4,0.9-1.1,2.3c-0.6,1.4-1.4,3.4-1.8,5.7c-0.4,2.3-0.5,4.5-0.4,6
								c0.1,1.5,0.2,2.5,0.2,2.5c0,0-0.1-0.2-0.2-0.7c-0.1-0.4-0.2-1-0.3-1.8c-0.2-1.6-0.2-3.7,0.3-6.1c0.4-2.4,1.2-4.4,1.9-5.8
								c0.4-0.7,0.7-1.2,0.9-1.6C100.9,104.3,101.1,104.1,101.1,104.1z"/>
						</g>
					</g>
				</g>
			</g>
			<g>
				<g>
					<g>
						<g>
							<path class="st8" d="M124.6,115.2c-0.1,0.1-0.8-0.2-1.6-0.7c-0.8-0.5-1.4-1-1.3-1.1c0.1-0.1,0.8,0.2,1.6,0.7
								C124,114.6,124.6,115.1,124.6,115.2z"/>
						</g>
					</g>
				</g>
			</g>
			<g>
				<g>
					<g>
						<g>
							<path class="st8" d="M125.9,113.4c-0.1,0-1-1.6-1.9-3.8c-0.9-2.1-1.6-3.9-1.5-3.9c0.1,0,1,1.6,1.9,3.8
								C125.4,111.6,126,113.4,125.9,113.4z"/>
						</g>
					</g>
				</g>
			</g>
			<g class="st3">
				<g>
					<g>
						<g>
							<path d="M143.5,179.2c-0.2-0.7-0.4-1.4-1-1.8c-1-0.7-2.3,0.2-3.4,0.8c-2.8,1.7-6.2,1.6-9.5,1.5c-9.8-0.4-19.5-1.2-29.1-2.8
								c-4.7-0.8-9.5-1.8-13.7-4.1c-4.2-2.3-7.9-5.9-9.2-10.5l-2.3-1.2c1.7,3.7,1.6,14.3,2.2,18.3c0.6,4.1,2.4,7,6.3,8.2
								c1.6,0.5,3.3,0.4,4.9,0.3c16.1-0.8,32.3-0.1,48.3-0.9c2.3-0.1,4.9-0.4,6.2-2.4C144.4,183.2,144,181.1,143.5,179.2z"/>
						</g>
					</g>
				</g>
			</g>
			<g>
				<g>
					<g>
						<g>
							<path class="st8" d="M203.9,188.4c0,0,0-0.1-0.1-0.2c-0.1-0.1-0.2-0.3-0.3-0.6c-0.1-0.3-0.3-0.6-0.5-0.9
								c-0.2-0.3-0.5-0.7-0.8-1.2c-1.2-1.8-3.3-4.1-6.2-6.8c-2.9-2.7-6.6-5.7-10.7-9.1c-2.1-1.7-4.3-3.5-6.5-5.6
								c-2.2-2-4.4-4.2-6.5-6.7l0.3,0c-3.9,4.1-8.1,8.5-12.5,13.1c-0.6,0.6-1.1,1.2-1.7,1.7l0-0.3c4.7,6.9,9,13.6,13.5,19.2
								c2.2,2.8,4.5,5.3,6.8,7.6c2.2,2.3,4.4,4.3,6.6,5.9c4.3,3.3,8.7,4.7,11.7,4.6c0.4,0,0.7,0,1.1,0c0.3,0,0.6-0.1,0.9-0.1
								c0.3,0,0.6-0.1,0.8-0.1c0.2-0.1,0.5-0.1,0.6-0.1c0.4-0.1,0.7-0.1,0.9-0.2c0.2,0,0.3-0.1,0.3-0.1c0,0-0.1,0-0.3,0.1
								c-0.2,0.1-0.5,0.1-0.9,0.2c-0.2,0.1-0.4,0.1-0.6,0.2c-0.2,0-0.5,0.1-0.8,0.1c-0.3,0-0.6,0.1-0.9,0.1c-0.3,0-0.7,0-1.1,0
								c-3.1,0.1-7.5-1.3-11.9-4.5c-2.2-1.6-4.4-3.6-6.7-5.9c-2.3-2.3-4.6-4.8-6.9-7.6c-4.6-5.6-8.9-12.3-13.6-19.2L158,172l0.1-0.1
								c0.5-0.6,1.1-1.1,1.7-1.7c4.4-4.6,8.6-9,12.5-13.1l0.2-0.2l0.1,0.2c2,2.5,4.2,4.7,6.4,6.7c2.2,2,4.4,3.8,6.4,5.6
								c4.1,3.5,7.8,6.5,10.7,9.2c2.9,2.7,5,5.1,6.2,6.9c0.3,0.5,0.5,0.9,0.8,1.2c0.2,0.4,0.3,0.7,0.4,0.9c0.1,0.2,0.2,0.4,0.3,0.6
								C203.8,188.3,203.9,188.4,203.9,188.4z"/>
						</g>
					</g>
				</g>
			</g>
			<g class="st3">
				<g>
					<path d="M161.4,175.9l-1.4-0.4c1.2,6.8,4.9,16.3,8.2,22.3h9.8C174.3,193.2,161.4,175.9,161.4,175.9z"/>
				</g>
			</g>
		</g>
		<g>
			<g>
				<g>
					<g>
						<g>
							<g>
								<g>
									<g>
										<g>
											<path class="st9" d="M170.5,159.1l-19.7-21.6l-11.8-2.2l-13.4,1.7c0,0-0.6,2.1,1.7,3.3l-5,0.3c0,0-1,2.6,1.8,3.7
												l-3.5,0.6c0,0,1.6,3.6,5.5,2.9c4-0.7,10.5-0.7,10.5-0.7l7,3.8l-10.4-0.4l-7.5,1.4c0,0-1,1.9,0.7,2.4c1.7,0.5,8.2,0,8.2,0
												l9.4,3c0,0,3.7,5.2,4.9,6.6c1.3,1.4,7.4,4,7.4,4l3,2.7L170.5,159.1z"/>
										</g>
									</g>
								</g>
							</g>
						</g>
					</g>
					<g>
						<g>
							<g>
								<g>
									<g>
										<g>
											<g>
												<path class="st10" d="M122.3,140.5c0,0.1,1.5,0,3.9-0.1c2.4-0.2,5.6-0.5,9.3-0.9c1.2-0.1,2.4-0.3,3.5-0.4l-0.1,0
													c2.7,0.8,5,1.4,6.7,1.8c1.7,0.4,2.7,0.6,2.7,0.5c0-0.1-0.9-0.4-2.6-1c-1.6-0.5-3.9-1.3-6.6-2.1l-0.1,0l-0.1,0
													c-1.1,0.1-2.3,0.2-3.5,0.4c-3.6,0.4-6.9,0.8-9.2,1.1C123.7,140.2,122.2,140.4,122.3,140.5z"/>
											</g>
										</g>
									</g>
								</g>
							</g>
						</g>
					</g>
					<g>
						<g>
							<g>
								<g>
									<g>
										<g>
											<g>
												<path class="st10" d="M121.4,144.7c0,0.1,1.4,0,3.5-0.2c2.1-0.2,5.1-0.6,8.4-1.1c1.1-0.2,2.2-0.3,3.2-0.5l-0.2,0
													c4.7,1.8,8.1,3,8.2,2.9c0.1-0.2-3.3-1.7-7.9-3.6l-0.1,0l-0.1,0c-1,0.1-2.1,0.3-3.2,0.5c-3.3,0.5-6.2,1-8.3,1.3
													C122.7,144.3,121.4,144.6,121.4,144.7z"/>
											</g>
										</g>
									</g>
								</g>
							</g>
						</g>
					</g>
				</g>
			</g>
			<g>
				<g>
					<g>
						<g>
							<path class="st8" d="M71.1,141.3l10,37.8c0.6,2.1,2.5,3.5,4.6,3.5l51.8-1c2.9-0.1,5.1-2.8,4.5-5.7l-7.6-36.2
								c-0.5-2.2-2.4-3.7-4.6-3.7H75.2C72.4,136,70.4,138.6,71.1,141.3z"/>
						</g>
					</g>
				</g>
				<g>
					<g>
						<path class="st7" d="M105,151.2c1.4,0.7,2,2.3,1.4,3.5c-0.6,1.2-2.3,1.7-3.7,1c-1.4-0.7-2-2.3-1.4-3.5
							C102,151,103.6,150.5,105,151.2z"/>
					</g>
				</g>
				<g>
					<g>
						<g>
							<path class="st9" d="M67.4,149.6c-1-1.1-0.9-3,0-4.2c0.9-1.2,2.4-1.8,3.9-1.9c1.5-0.1,3,0.4,4.4,0.9c1.7,0.7,3.4,1.5,5,2.5
								c1.1,0.7,2.3,1.6,2.5,2.9c0.2,1.3-1.2,2.8-2.3,2.1c1.5,0.6,3,2.2,3.2,3.8c0.2,1.6-0.6,2.5-2.2,3c1.2,0.5,2,2,1.4,3.2
								c-0.6,1.2-2.3,1.6-3.6,1.1c-1.3-0.5-2.2-1.6-3.1-2.6c0.9,1.6,1.2,3.4,0.9,5.2c-3.5-1.2-6.2-4.5-6.7-8.2
								c-1.7-1.3-2.3-3.9-1.3-5.8c-1.4-0.4-3-2.6-2.9-4.1"/>
						</g>
					</g>
				</g>
				<g>
					<g>
						<g>
							<g>
								<path class="st10" d="M81.8,158.8c0,0-0.6-0.4-1.5-1.2c-0.9-0.7-2.3-1.7-4-2c-0.9-0.2-1.7-0.2-2.4,0
									c-0.7,0.2-1.3,0.5-1.8,0.9c-0.9,0.7-1.1,1.5-1.2,1.5c0,0,0-0.2,0.1-0.5c0.1-0.3,0.4-0.7,0.8-1.2c0.4-0.4,1.1-0.8,1.9-1
									c0.8-0.2,1.7-0.2,2.6,0c1.8,0.4,3.2,1.4,4.1,2.2C81.3,158.2,81.8,158.8,81.8,158.8z"/>
							</g>
						</g>
					</g>
				</g>
				<g>
					<g>
						<g>
							<g>
								<path class="st10" d="M81.4,152.1c0,0.1-0.7-0.2-1.8-0.8c-0.6-0.3-1.2-0.6-2-0.9c-0.7-0.3-1.6-0.5-2.5-0.7
									c-0.9-0.2-1.8-0.2-2.6,0c-0.8,0.1-1.4,0.5-1.9,0.8c-1,0.7-1.2,1.5-1.2,1.5c0,0,0-0.2,0.1-0.5c0.1-0.3,0.4-0.8,0.9-1.2
									c0.5-0.4,1.2-0.8,2-1c0.8-0.2,1.8-0.2,2.7,0c0.9,0.2,1.8,0.4,2.6,0.7c0.8,0.3,1.4,0.7,2,0.9
									C80.7,151.7,81.4,152.1,81.4,152.1z"/>
							</g>
						</g>
					</g>
				</g>
			</g>
		</g>
	</g>
</g>
<g id="Speech_Bubble2">
</g>
<g id="Character_3">
</g>
<g id="Character_2">
</g>
<g id="Speech_Bubble1">
</g>
<g id="Character_1">
</g>
</svg>
