<?xml version="1.0" encoding="utf-8"?>
<!-- Generator: Adobe Illustrator 24.2.1, SVG Export Plug-In . SVG Version: 6.00 Build 0)  -->
<svg version="1.0" xmlns="http://www.w3.org/2000/svg" xmlns:xlink="http://www.w3.org/1999/xlink" x="0px" y="0px"
	 viewBox="0 0 275 221.8" style="enable-background:new 0 0 275 221.8;" xml:space="preserve">
<style type="text/css">
	.st0{fill:#E0E0E0;}
	.st1{fill:#EBEBEB;}
	.st2{fill:#F5F5F5;}
	.st3{opacity:0.3;}
	.st4{fill:#FAFAFA;}
	.st5{display:none;}
	.st6{display:inline;fill:#F5F5F5;}
	.st7{fill:#FFFFFF;}
	.st8{fill:#263238;}
	.st9{fill:#FFBE9D;}
	.st10{fill:#EB996E;}
	.st11{fill:#FF725E;}
	.st12{fill:#455A64;}
	.st13{fill:#A5695F;}
	.st14{fill:#83534B;}
	.st15{fill:none;stroke:#4E585D;stroke-miterlimit:10;}
</style>
<g id="Background_Complete">
</g>
<g id="Background_Simple" class="st5">
</g>
<g id="Character_4">
</g>
<g id="Speech_Bubble2">
</g>
<g id="Character_3">
</g>
<g id="Character_2">
</g>
<g id="Speech_Bubble1">
</g>
<g id="Character_1">
	<g>
		<g>
			<g>
				<g>
					<g>
						<rect x="28.3" y="27.5" class="st7" width="232.9" height="173"/>
					</g>
				</g>
				<g>
					<g>
						<g>
							<path class="st8" d="M261.2,200.4c0-1.8-0.1-68.3-0.2-173l0.2,0.2c-65.6,0-146,0-232.9,0h0l0.3-0.3c0,62.1,0,121,0,173
								l-0.2-0.2C166.2,200.3,259.2,200.4,261.2,200.4c-2.1,0-95,0.1-232.9,0.2l-0.2,0v-0.2c0-52,0-110.8,0-173v-0.3h0.3h0
								c86.8,0,167.3,0,232.9,0h0.2l0,0.2C261.3,132.2,261.2,198.7,261.2,200.4z"/>
						</g>
					</g>
				</g>
			</g>
			<g>
				<g>
					<g>
						<path class="st0" d="M260.8,51.6c0,0.1-51.6,0.3-115.3,0.3c-63.7,0-115.3-0.1-115.3-0.3c0-0.1,51.6-0.3,115.3-0.3
							C209.2,51.4,260.8,51.5,260.8,51.6z"/>
					</g>
				</g>
			</g>
			<g>
				<g>
					<path class="st0" d="M43.6,39c0,1.9-1.5,3.4-3.4,3.4s-3.4-1.5-3.4-3.4c0-1.9,1.5-3.4,3.4-3.4S43.6,37.1,43.6,39z"/>
				</g>
			</g>
			<g>
				<g>
					<path class="st0" d="M53.9,39c0,1.9-1.5,3.4-3.4,3.4c-1.9,0-3.4-1.5-3.4-3.4c0-1.9,1.5-3.4,3.4-3.4
						C52.4,35.6,53.9,37.1,53.9,39z"/>
				</g>
			</g>
			<g>
				<g>
					<path class="st0" d="M64.2,39c0,1.9-1.5,3.4-3.4,3.4c-1.9,0-3.4-1.5-3.4-3.4c0-1.9,1.5-3.4,3.4-3.4
						C62.7,35.6,64.2,37.1,64.2,39z"/>
				</g>
			</g>
		</g>
		<g>
			<g>
				<g>
					<g>
						<path class="st8" d="M157.2,23.6c-0.8-2.8-2.3-5.6-4.8-7c-1.2-0.7-2.6-1.1-3.8-1.7c-1.5-0.8-2.7-2-4.1-2.9
							c-3.4-2.3-7.8-3.1-11.8-2.1c-4,1-7.5,3.8-9.3,7.5c-2.8-2.2-7.8-1.3-11.1,0c-3.4,1.2-6.2,5.2-7,8.7l15.8,4.8
							c3.2,3.4,6.7,6.6,10.8,8.9c4.1,2.2,8.9,3.4,13.5,2.7c4.6-0.7,9-3.5,11.1-7.6C158.1,31.2,158.2,27.2,157.2,23.6z"/>
					</g>
				</g>
				<g>
					<g>
						<path class="st8" d="M168.4,75.7c4-2.8,5-9.1,2-13c-0.9-1.2-2.1-2.2-2.3-3.6c-0.1-0.9,0.2-1.8,0.4-2.6
							c1.4-5.8-0.9-12.3-5.7-15.8c-0.1-3.2-1.9-10.1-6-12.7l-18.6,2.6c0.8,19.6,0.8,39.3-0.2,58.9c-0.1,3-0.3,6.2,1.4,8.8
							c2.3,3.6,7.2,4.3,11.5,4.4c4.1,0.1,8.2-0.1,12.1-1.4c3.9-1.3,7.4-4,9-7.8C174.4,87.7,171.8,81,168.4,75.7z"/>
					</g>
				</g>
				<g>
					<g>
						<g>
							<g>
								<g>
									<g>
										<g>
											<g>
												<g>
													<path class="st9" d="M111.6,36.1l-0.6-4.2l24.6-7.7c7.7-1.7,16.9,5.1,18.3,12.8c1.5,8.6,3.1,19.1,2.8,25.7
														c-0.6,13.2-10.3,16-10.3,16l1,7.8c1,7.9-4.6,15.2-12.5,16.2h0c-7.9,1-15.1-4.6-16.2-12.5L111.6,36.1z"/>
												</g>
											</g>
										</g>
									</g>
								</g>
							</g>
						</g>
					</g>
				</g>
				<g>
					<g>
						<g>
							<g>
								<g>
									<g>
										<g>
											<g>
												<g>
													<g>
														<g>
															<g>
																<g>
																	<g>
																		<g>
																			<g>
																				<g>
																					<path class="st8" d="M152.2,46.7c0.1,0.9-0.5,1.7-1.4,1.9c-0.9,0.2-1.8-0.4-1.9-1.3c-0.1-0.9,0.5-1.7,1.4-1.9
																						C151.3,45.3,152.1,45.9,152.2,46.7z"/>
																				</g>
																			</g>
																		</g>
																	</g>
																</g>
															</g>
														</g>
													</g>
												</g>
											</g>
										</g>
									</g>
								</g>
							</g>
						</g>
					</g>
				</g>
				<g>
					<g>
						<g>
							<g>
								<g>
									<g>
										<g>
											<g>
												<g>
													<g>
														<g>
															<g>
																<g>
																	<g>
																		<g>
																			<g>
																				<g>
																					<g>
																						<path class="st8" d="M151.8,42.9c-0.2,0.2-1.5-0.5-3.3-0.3c-1.8,0.2-3,1.3-3.2,1.1c-0.1-0.1,0.1-0.5,0.6-1
																							c0.5-0.5,1.4-1,2.5-1.1c1.1-0.1,2.1,0.2,2.7,0.5C151.7,42.4,151.9,42.8,151.8,42.9z"/>
																					</g>
																				</g>
																			</g>
																		</g>
																	</g>
																</g>
															</g>
														</g>
													</g>
												</g>
											</g>
										</g>
									</g>
								</g>
							</g>
						</g>
					</g>
				</g>
				<g>
					<g>
						<g>
							<g>
								<g>
									<g>
										<g>
											<g>
												<g>
													<g>
														<g>
															<g>
																<g>
																	<g>
																		<g>
																			<g>
																				<g>
																					<path class="st8" d="M135.5,49c0.1,0.9-0.5,1.7-1.4,1.9c-0.9,0.2-1.8-0.4-1.9-1.3c-0.1-0.9,0.5-1.7,1.4-1.9
																						C134.6,47.6,135.4,48.1,135.5,49z"/>
																				</g>
																			</g>
																		</g>
																	</g>
																</g>
															</g>
														</g>
													</g>
												</g>
											</g>
										</g>
									</g>
								</g>
							</g>
						</g>
					</g>
				</g>
				<g>
					<g>
						<g>
							<g>
								<g>
									<g>
										<g>
											<g>
												<g>
													<g>
														<g>
															<g>
																<g>
																	<g>
																		<g>
																			<g>
																				<g>
																					<g>
																						<path class="st8" d="M134.3,45.2c-0.2,0.2-1.5-0.5-3.3-0.3c-1.8,0.2-3,1.3-3.2,1.1c-0.1-0.1,0.1-0.5,0.6-1
																							c0.5-0.5,1.4-1,2.5-1.1c1.1-0.1,2.1,0.2,2.7,0.5C134.1,44.7,134.4,45.1,134.3,45.2z"/>
																					</g>
																				</g>
																			</g>
																		</g>
																	</g>
																</g>
															</g>
														</g>
													</g>
												</g>
											</g>
										</g>
									</g>
								</g>
							</g>
						</g>
					</g>
				</g>
				<g>
					<g>
						<g>
							<g>
								<g>
									<g>
										<g>
											<g>
												<g>
													<g>
														<g>
															<g>
																<g>
																	<g>
																		<g>
																			<g>
																				<g>
																					<path class="st8" d="M142.3,57.7c0-0.1,1.1-0.4,2.8-0.9c0.5-0.1,0.9-0.2,0.9-0.6c0.1-0.3-0.2-0.8-0.5-1.3
																						c-0.6-1.1-1.1-2.2-1.8-3.3c-2.4-4.7-4.3-8.7-4.1-8.7c0.2-0.1,2.3,3.7,4.8,8.4c0.6,1.2,1.2,2.3,1.7,3.3
																						c0.2,0.5,0.6,1.1,0.4,1.8c-0.1,0.4-0.4,0.6-0.7,0.8c-0.3,0.1-0.5,0.2-0.8,0.2
																						C143.4,57.7,142.3,57.8,142.3,57.7z"/>
																				</g>
																			</g>
																		</g>
																	</g>
																</g>
															</g>
														</g>
													</g>
												</g>
											</g>
										</g>
									</g>
								</g>
							</g>
						</g>
					</g>
				</g>
				<g>
					<g>
						<g>
							<g>
								<g>
									<g>
										<g>
											<g>
												<g>
													<g>
														<g>
															<g>
																<g>
																	<g>
																		<g>
																			<g>
																				<path class="st10" d="M146.4,78.7c0,0-9.1,1.6-18.3-2.6c0,0,5.4,8.6,18.7,5.8L146.4,78.7z"/>
																			</g>
																		</g>
																	</g>
																</g>
															</g>
														</g>
													</g>
												</g>
											</g>
										</g>
									</g>
								</g>
							</g>
						</g>
					</g>
				</g>
				<g>
					<g>
						<g>
							<g>
								<g>
									<g>
										<g>
											<g>
												<g>
													<g>
														<g>
															<g>
																<g>
																	<g>
																		<g>
																			<g>
																				<path class="st10" d="M142,62.1c-0.7-0.8-1.9-1.1-3-0.9c-0.8,0.2-1.5,0.6-1.9,1.3c-0.4,0.7-0.4,1.6,0.1,2.1
																					c0.6,0.6,1.6,0.7,2.4,0.3c0.8-0.3,1.5-1,2.1-1.6c0.2-0.2,0.4-0.4,0.5-0.6C142.3,62.6,142.3,62.3,142,62.1"/>
																			</g>
																		</g>
																	</g>
																</g>
															</g>
														</g>
													</g>
												</g>
											</g>
										</g>
									</g>
								</g>
							</g>
						</g>
					</g>
				</g>
				<g>
					<g>
						<g>
							<g>
								<g>
									<g>
										<g>
											<g>
												<g>
													<g>
														<g>
															<g>
																<g>
																	<g>
																		<g>
																			<g>
																				<g>
																					<path class="st8" d="M137.2,59.6c0.3-0.1,0.5,1.9,2.3,3.1c1.8,1.2,3.9,0.7,3.9,1c0,0.1-0.4,0.4-1.3,0.6
																						c-0.9,0.1-2.1,0-3.2-0.7c-1.1-0.7-1.7-1.8-1.8-2.6C136.9,60.1,137,59.6,137.2,59.6z"/>
																				</g>
																			</g>
																		</g>
																	</g>
																</g>
															</g>
														</g>
													</g>
												</g>
											</g>
										</g>
									</g>
								</g>
							</g>
						</g>
					</g>
				</g>
				<g>
					<g>
						<g>
							<g>
								<g>
									<g>
										<g>
											<g>
												<g>
													<g>
														<g>
															<g>
																<g>
																	<path class="st8" d="M133.9,38.2c-0.1,0.5-1.9,0.5-4,1c-2.1,0.5-3.7,1.3-4,0.9c-0.1-0.2,0.1-0.7,0.7-1.2
																		c0.6-0.5,1.7-1.1,2.9-1.4c1.2-0.3,2.4-0.2,3.2,0C133.6,37.6,134,37.9,133.9,38.2z"/>
																</g>
															</g>
														</g>
													</g>
												</g>
											</g>
										</g>
									</g>
								</g>
							</g>
						</g>
					</g>
				</g>
				<g>
					<g>
						<g>
							<g>
								<g>
									<g>
										<g>
											<g>
												<g>
													<g>
														<g>
															<g>
																<g>
																	<path class="st8" d="M150.6,37.8c-0.3,0.4-1.5,0.2-3,0.3c-1.5,0.1-2.7,0.6-3,0.2c-0.1-0.2,0-0.6,0.5-1.1
																		c0.5-0.4,1.4-0.9,2.4-0.9c1-0.1,1.9,0.2,2.5,0.5C150.5,37.1,150.7,37.5,150.6,37.8z"/>
																</g>
															</g>
														</g>
													</g>
												</g>
											</g>
										</g>
									</g>
								</g>
							</g>
						</g>
					</g>
				</g>
				<g>
					<g>
						<path class="st8" d="M114.4,23.1c-2.5,0.8-5.4,7.8-4.7,10.4c0.7,2.6,3.1,4.4,5.7,5.1c2.6,0.7,5.4,0.3,7.9-0.5
							c3.6-1.1,7.5-3.6,7.7-7.4c3.5,3.6,9,5.1,13.9,3.8c4.9-1.3,8.5-8.7,9.8-13.5L114.4,23.1z"/>
					</g>
				</g>
				<g>
					<g>
						<g>
							<path class="st12" d="M139.5,49.1c-0.1,0,0-0.7-0.3-1.8c-0.3-1.1-1-2.7-2.7-3.9c-0.8-0.6-1.8-1.1-3-1.3
								c-1.2-0.2-2.5-0.2-3.7,0.3c-1.3,0.5-2.4,1.3-3.3,2.5c-0.9,1.2-1.4,2.7-1.4,4.2c0,1.5,0.5,3,1.4,4.2c0.8,1.2,2,2,3.3,2.5
								c1.3,0.5,2.6,0.5,3.7,0.3c1.2-0.2,2.2-0.7,3-1.3c1.6-1.2,2.4-2.8,2.7-3.9C139.5,49.7,139.5,49.1,139.5,49.1c0,0,0,0.2,0,0.5
								c0,0.3,0,0.8-0.2,1.3c-0.2,1.1-1,2.8-2.7,4.2c-0.8,0.7-1.9,1.2-3.2,1.4c-1.2,0.2-2.6,0.2-4-0.3c-1.3-0.5-2.6-1.4-3.5-2.6
								c-0.9-1.2-1.5-2.8-1.5-4.5c0-1.6,0.5-3.3,1.5-4.5c0.9-1.3,2.2-2.2,3.5-2.6c1.3-0.5,2.7-0.5,4-0.3c1.2,0.2,2.3,0.8,3.2,1.4
								c1.7,1.3,2.4,3,2.7,4.2c0.1,0.6,0.2,1,0.2,1.3C139.6,48.9,139.6,49.1,139.5,49.1z"/>
						</g>
					</g>
				</g>
				<g>
					<g>
						<g>
							<path class="st12" d="M158,45.8c-0.1,0,0-0.7-0.3-1.8c-0.3-1.1-1-2.7-2.7-3.9c-0.8-0.6-1.8-1.1-3-1.3
								c-1.2-0.2-2.5-0.2-3.7,0.3c-1.3,0.5-2.4,1.3-3.3,2.5c-0.9,1.2-1.4,2.7-1.4,4.2c0,1.5,0.5,3,1.4,4.2c0.8,1.2,2,2,3.3,2.5
								c1.3,0.5,2.6,0.5,3.7,0.3c1.2-0.2,2.2-0.7,3-1.3c1.6-1.2,2.4-2.8,2.7-3.9C157.9,46.4,157.9,45.8,158,45.8c0,0,0,0.2,0,0.5
								c0,0.3,0,0.8-0.2,1.3c-0.2,1.1-1,2.8-2.7,4.2c-0.8,0.7-1.9,1.2-3.2,1.4c-1.2,0.2-2.6,0.2-4-0.3c-1.3-0.5-2.6-1.4-3.5-2.6
								c-0.9-1.2-1.5-2.8-1.5-4.5c0-1.6,0.5-3.3,1.5-4.5c0.9-1.3,2.2-2.2,3.5-2.6c1.3-0.5,2.7-0.5,4-0.3c1.2,0.2,2.3,0.8,3.2,1.4
								c1.7,1.3,2.4,3,2.7,4.2c0.1,0.6,0.2,1,0.2,1.3C158,45.6,158,45.8,158,45.8z"/>
						</g>
					</g>
				</g>
				<g>
					<g>
						<g>
							<path class="st12" d="M138.5,45c-0.1,0-0.1-0.4,0.2-0.8c0.2-0.5,0.8-1.1,1.6-1.3c0.8-0.3,1.6-0.1,2.1,0.2
								c0.5,0.3,0.7,0.5,0.6,0.6c-0.1,0.1-0.3-0.1-0.8-0.2c-0.4-0.1-1.1-0.2-1.8,0c-0.7,0.2-1.1,0.7-1.4,1
								C138.6,44.8,138.5,45.1,138.5,45z"/>
						</g>
					</g>
				</g>
				<g>
					<g>
						<g>
							<path class="st12" d="M124.6,50.8c0.1,0.1-1.2,0.7-2.8,1.2c-1.6,0.5-3,0.9-3,0.7c0-0.1,1.2-0.7,2.8-1.2
								C123.2,51,124.5,50.7,124.6,50.8z"/>
						</g>
					</g>
				</g>
			</g>
			<g>
				<g>
					<g>
						<path class="st9" d="M252,73.2c2.1-0.8,1.3-3.1,1.3-3.1l-8,2.4c0,0,4.2-1.7,6.4-3.5c2.2-1.8,1.1-3.3,1.1-3.3l-8.2,3.2
							l-4.7,2.7l-11.7,17.8c0,0,9.1,4.5,10.7,3.2c2.8-2.3,4.4-7.3,5-9.9c1.1-0.3,4.7-1.4,5.7-2c1.2-0.8,1.7-1.9,1.7-1.9L245,80
							c0.9-0.3,6.8-2.3,7.3-3c0.8-1.3,0.3-1.8,0.3-1.8l-8,1.2l0.8-0.6C245.5,75.8,249.9,74,252,73.2z"/>
					</g>
				</g>
				<g>
					<g>
						<g>
							<path class="st9" d="M222.6,91.7l-26.8,24.5c-3.3-0.8-44.2-25.2-44.2-25.2l-6.5,31.4c0,0,41.8,19.2,53.3,16.9
								c1.9-0.4,5-0.6,6.9-3.1c9.2-11.8,28.7-41.1,28.7-41.1L222.6,91.7z"/>
						</g>
					</g>
				</g>
				<g>
					<g>
						<g>
							<path class="st9" d="M240.9,90.5l-4.8-2.3l3.5-6.3l2.7-5.8l4.2-7.9l-6.5,2.4c-0.8,0.3-1.4,0.8-2,1.5l-10.7,14.7l-4.7,4.8
								l4.6,12.3l5.4-8.4c0,0,0,0,3.1-0.7C238.9,94,240.9,90.5,240.9,90.5z"/>
						</g>
					</g>
				</g>
				<g>
					<g>
						<g>
							<g>
								<path class="st9" d="M233.1,80.5c2.2-1.1,4.6-2,6.9-2.7c0.8-0.2,1.6-0.4,2.4-0.3c0.8,0.1,1.6,0.6,1.8,1.4
									c0.2,0.9-0.3,1.8-1.1,2.3c-0.8,0.5-1.7,0.7-2.6,0.9c-0.9,0.2-1.8,0.6-2.4,1.3c-0.6,0.7-0.7,1.6-1,2.4
									c-1,2.7-3.4,4.8-6.2,5.3"/>
							</g>
						</g>
					</g>
					<g>
						<g>
							<g>
								<g>
									<path class="st10" d="M230.9,91.1c0,0,0.4-0.1,1.2-0.4c0.7-0.3,1.8-0.8,2.8-1.8c0.5-0.5,1-1.1,1.4-1.8
										c0.4-0.7,0.7-1.5,1-2.5c0.2-0.5,0.4-0.9,0.7-1.4c0.4-0.4,0.8-0.7,1.3-0.9c1-0.4,2.1-0.5,3.1-0.9c0.5-0.2,0.9-0.5,1.2-0.9
										c0.3-0.4,0.5-0.8,0.5-1.3c0-0.9-1-1.5-1.9-1.6c-0.9-0.1-1.8,0.2-2.6,0.4c-0.8,0.2-1.6,0.5-2.2,0.7
										c-1.4,0.5-2.4,0.9-3.2,1.2c-0.7,0.3-1.1,0.5-1.2,0.5c0,0,0.4-0.3,1.1-0.6c0.7-0.4,1.8-0.9,3.1-1.4c0.7-0.3,1.4-0.5,2.2-0.8
										c0.8-0.2,1.7-0.6,2.7-0.5c0.5,0,1,0.2,1.5,0.5c0.4,0.3,0.8,0.8,0.8,1.4c0,1.2-0.9,2.2-2,2.6c-1.1,0.4-2.1,0.5-3.1,0.9
										c-0.5,0.2-0.9,0.5-1.2,0.8c-0.3,0.3-0.5,0.8-0.7,1.2c-0.3,0.9-0.6,1.8-1.1,2.5c-0.4,0.7-1,1.4-1.5,1.8
										c-1.1,1-2.2,1.5-3,1.7c-0.4,0.1-0.7,0.2-0.9,0.2C231,91.1,230.9,91.2,230.9,91.1z"/>
								</g>
							</g>
						</g>
					</g>
				</g>
			</g>
			<g>
				<g>
					<g>
						<path class="st8" d="M148.6,179.5H93.7c0,0-8.1,10.2-13.5,20.8l78.3,0.3C160.1,198.1,148.6,179.5,148.6,179.5z"/>
					</g>
				</g>
				<g>
					<g>
						<path class="st11" d="M164.9,129.5c-1.9-24.6-8-40.1-8-40.1l-9.5-2.9v0c-1.4,6.3-11.7,8.4-17.5,5.6l-6.2-3.2
							c-19.8-3-18.8-1.3-23.4,1.4c-4,2.4-3.6,20.2-3.6,20.2s-9.9,46.5-9.3,54c0.5,7.5,6.3,14.9,6.3,14.9s49.4,0,54.9,0
							c5.5,0,7.1-12.5,6.7-17.1C155,157.9,165.5,137.6,164.9,129.5z"/>
					</g>
				</g>
				<g>
					<g>
						<g>
							<g>
								<g>
									<g>
										<g>
											<path class="st8" d="M112.7,145c0,0,0.3,0.3,0.9,0.8c0.6,0.5,1.6,1.1,2.8,1.7c1.3,0.6,2.9,1.1,4.7,1.4
												c1.8,0.3,3.9,0.2,6-0.3c4.2-1,7.4-3.5,9.3-5.4c1-1,1.7-1.9,2.1-2.5c0.5-0.6,0.7-1,0.6-1c-0.1-0.1-1.1,1.3-3.1,3.2
												c-2,1.8-5.1,4.2-9.2,5.1c-4.1,1-7.9,0.1-10.4-1C114.1,146,112.8,144.9,112.7,145z"/>
										</g>
									</g>
								</g>
							</g>
						</g>
					</g>
				</g>
				<g class="st3">
					<g>
						<g>
							<g>
								<g>
									<g>
										<g>
											<path d="M138.4,140.9c-0.4,4.1-2.4,8.2-5.6,10.8c-3.2,2.6-7.8,3.7-11.8,2.6c-4-1.1-7.3-4.6-8-8.7
												c2.8,1.3,5.7,2.6,8.8,3.1c6.5,1,13.5-2.3,16.9-8c-0.1,0.2-0.3,0.3-0.4,0.5"/>
										</g>
									</g>
								</g>
							</g>
						</g>
					</g>
				</g>
				<g>
					<g>
						<g>
							<path class="st11" d="M75.6,128.4l27.7,13c0,0,11.3-25,12.3-28.4c1-3.4,4-8.8,0.9-15.9c-3.1-7.1-11.5-9.7-16.1-6.7
								C90,97.1,75.6,128.4,75.6,128.4z"/>
						</g>
					</g>
				</g>
				<g>
					<g>
						<g>
							<path class="st11" d="M162.7,129.7c1.3,0,16.1,7.8,16.1,7.8l8.5-28c-12.6-8.4-23-18-30.4-20l3.9,23.1L162.7,129.7z"/>
						</g>
					</g>
				</g>
				<g>
					<g>
						<g>
							<g>
								<path class="st8" d="M75.6,128.4c0,0,0.2,0.1,0.5,0.2c0.4,0.2,0.9,0.4,1.5,0.7c1.4,0.6,3.3,1.5,5.6,2.5
									c4.8,2.2,11.2,5.1,18.4,8.4c0.8,0.4,1.5,0.7,2.2,1l-0.3,0.1c3.2-6.6,6-12.5,8-16.7c1-2.1,1.7-3.8,2.3-5
									c0.3-0.5,0.5-1,0.6-1.4c0.1-0.3,0.2-0.5,0.2-0.5c0,0,0,0.2-0.2,0.5c-0.1,0.3-0.3,0.8-0.5,1.4c-0.5,1.2-1.2,3-2.2,5.1
									c-1.9,4.3-4.6,10.2-7.8,16.8l-0.1,0.2l-0.2-0.1c-0.7-0.3-1.5-0.7-2.2-1c-7.1-3.3-13.6-6.3-18.3-8.5c-2.3-1.1-4.2-2-5.5-2.6
									c-0.6-0.3-1.1-0.5-1.5-0.7C75.8,128.5,75.6,128.4,75.6,128.4z"/>
							</g>
						</g>
					</g>
				</g>
				<g>
					<g>
						<g>
							<path class="st8" d="M160.2,106.7c0,0,0.2,0.6,0.6,1.7c0.4,1.2,0.9,2.8,1.5,4.7c1.2,4,2.9,9.6,3,16.1
								c-0.1,3.2-0.7,6.2-1.5,8.9c-0.8,2.7-1.7,5-2.4,6.9c-0.8,1.9-1.4,3.5-1.9,4.6c-0.5,1.1-0.7,1.7-0.7,1.7c0,0,0-0.2,0.1-0.5
								c0.1-0.3,0.3-0.8,0.4-1.3c0.4-1.2,1-2.7,1.7-4.6c0.7-2,1.6-4.3,2.3-6.9c0.7-2.6,1.4-5.6,1.4-8.8c-0.1-6.3-1.7-11.9-2.9-15.9
								c-0.6-2-1-3.6-1.3-4.8c-0.1-0.6-0.2-1-0.3-1.3C160.2,106.9,160.1,106.7,160.2,106.7z"/>
						</g>
					</g>
				</g>
				<g>
					<g>
						<path class="st8" d="M136.7,101.1c-0.4-4.1-2.6-7.8-5.5-10.7c-1.4-1.4-3.2-2.9-3.4-4.9c-0.4-2.6,1.9-5.1,1.5-7.7
							c-0.5-3.3-4.5-4.7-6-7.6c-2-4,1.5-9.1-0.6-13c-1.3-2.3-4.3-3.6-4.9-6.2c-0.4-1.7,2.8-4.1,3.5-7.8c1.7-8.2,2.5-14.5-5.4-19.3
							l-4.6-6.4c-5.2,2.5-9.6,8.3-9.7,14.2c0,2.8,1.4,5.7,0.2,8.2c-1.7,3.5-5.7,5.7-6.9,9.5c-1.7,5.4,3,11.4,1,16.6
							c-1.2,3.1-4.4,4.9-6.5,7.5c-3.2,4.1-2.8,10.6,0.7,14.3c-5.1,3.4-7.4,10.4-5.4,16.1c0.8,2.4,2.7,4.8,5.3,5
							c3.7,0.2,5.8-3.9,8.4-6.5c4.2-3.9,11.5-3.7,15.4,0.4c2.8,2.9,4,7.3,7.3,9.7c3.3,2.4,8.2,2,11.4-0.6
							C135.7,109.5,137.2,105.2,136.7,101.1z"/>
					</g>
				</g>
			</g>
			<g>
				<g>
					<g>
						<g>
							<g>
								<g>
									<g>
										<g>
											<path class="st9" d="M100.6,139.6c-5.2,8.6-8.9,13.6-8.9,13.6l47,28.6l-5.5,12.7l-61-25.1c0,0-6-6.2-3.9-13.1l9.7-26.8
												L100.6,139.6z"/>
										</g>
									</g>
								</g>
							</g>
						</g>
					</g>
				</g>
				<g>
					<g>
						<g>
							<g>
								<g>
									<g>
										<g>
											<g>
												<path class="st10" d="M80.3,157.5c0.1,0.1,2.3-1.7,5.6-2.9c3.3-1.2,6.2-1.3,6.2-1.5c0-0.1-3-0.4-6.4,0.9
													C82.3,155.3,80.2,157.5,80.3,157.5z"/>
											</g>
										</g>
									</g>
								</g>
							</g>
						</g>
					</g>
				</g>
			</g>
			<g>
				<g>
					<g>
						<g>
							<g>
								<g>
									<g>
										<path class="st9" d="M175.2,190.5l-11.7-5.6l-22.9-1.8l-1.9-1.3l-5.5,12.7c0,0,6,2.9,9.1,3.1l19.2-0.6l10.1,1.1
											L175.2,190.5z"/>
									</g>
								</g>
							</g>
						</g>
					</g>
				</g>
			</g>
			<g>
				<g>
					<g>
						<g>
							<g>
								<path class="st0" d="M241.2,145.3l-66,0.5c-2.1,0-4.2,1-4.5,3.1l-7.2,48.1h-34c-1.1,0-2,0.9-2,2c0,1.1,0.9,2,2,2h33.4h6.3
									h68.8l7.4-50.8C245.9,147.7,243.9,145.3,241.2,145.3z"/>
							</g>
						</g>
					</g>
					<g>
						<g>
							<g>
								<g>
									<path class="st8" d="M241.2,145.3c0,0,0.4,0,1,0.1c0.7,0.2,1.7,0.6,2.5,1.7c0.4,0.5,0.7,1.3,0.8,2.1
										c0.1,0.8-0.1,1.7-0.2,2.7c-0.3,1.9-0.6,4.2-1,6.7c-1.5,10.1-3.5,24.6-6.1,42.5l0,0.2l-0.2,0c-28.1,0-65,0-105.3,0.1
										c-0.9,0-1.9,0-2.8,0c-0.4,0-1,0-1.5-0.3c-0.5-0.3-0.8-0.7-1-1.2c-0.4-1,0.1-2.2,1-2.7c0.5-0.3,1.1-0.3,1.5-0.3l1.4,0
										c3.7,0,7.4,0,11,0c7.3,0,14.3,0,21.2,0l-0.3,0.2c2.6-17.2,5-33.3,7.2-47.7c0.1-0.9,0.5-1.9,1.2-2.5c0.7-0.6,1.6-1,2.5-1.1
										c0.9-0.1,1.8-0.1,2.7-0.1c0.9,0,1.7,0,2.6,0c3.4,0,6.7,0,9.9-0.1c6.4,0,12.3-0.1,17.7-0.1c10.7-0.1,19.3-0.1,25.1-0.1
										c2.9,0,5.2,0,6.7,0c0.8,0,1.3,0,1.7,0C241,145.3,241.2,145.3,241.2,145.3s-0.2,0-0.6,0c-0.4,0-1,0-1.7,0
										c-1.5,0-3.8,0.1-6.7,0.1c-5.9,0.1-14.4,0.2-25.1,0.3c-5.4,0.1-11.3,0.1-17.7,0.2c-3.2,0-6.5,0.1-9.9,0.1
										c-0.9,0-1.7,0-2.6,0c-0.9,0-1.8,0-2.6,0.1c-0.8,0.1-1.7,0.4-2.3,1c-0.6,0.6-1,1.4-1.1,2.3c-2.2,14.4-4.5,30.5-7.1,47.7
										l0,0.2h-0.2c-6.8,0-13.9,0-21.2,0c-3.6,0-7.3,0-11,0l-1.4,0c-0.5,0-0.9,0-1.2,0.2c-0.7,0.4-1.1,1.3-0.8,2.1
										c0.1,0.4,0.4,0.7,0.8,0.9c0.4,0.2,0.7,0.2,1.2,0.2c0.9,0,1.9,0,2.8,0c40.3,0,77.2,0,105.3,0.1l-0.2,0.2
										c2.6-17.9,4.8-32.4,6.3-42.5c0.4-2.5,0.7-4.7,1-6.7c0.1-1,0.4-1.9,0.3-2.7c-0.1-0.8-0.4-1.5-0.8-2.1
										c-0.8-1.1-1.8-1.5-2.4-1.7C241.6,145.3,241.2,145.4,241.2,145.3z"/>
								</g>
							</g>
						</g>
					</g>
				</g>
				<g>
					<g>
						<g>
							<circle class="st7" cx="205.4" cy="172.6" r="4.1"/>
						</g>
					</g>
				</g>
				<g>
					<g>
						<g>
							<g>
								<path class="st8" d="M166.2,200.6c0.1,0,2.2-12.2,4.7-27.4c2.5-15.1,4.4-27.4,4.4-27.4c-0.1,0-2.2,12.2-4.7,27.4
									C168,188.4,166.1,200.6,166.2,200.6z"/>
							</g>
						</g>
					</g>
				</g>
			</g>
		</g>
	</g>
</g>
</svg>
